<?xml version="1.0" encoding="UTF-8"?>
<svg version="1.1" xmlns="http://www.w3.org/2000/svg" width="292" height="74">
<path d="M0 0 C0.75539062 -0.01160156 1.51078125 -0.02320313 2.2890625 -0.03515625 C11.35911159 0.01159658 17.45466152 3.02591685 24.01953125 9.1953125 C26.85837118 12.31971621 28.55291879 15.43350257 30 19.375 C30.4125 20.48875 30.825 21.6025 31.25 22.75 C33.30921521 32.7028735 31.73238626 41.31163524 27 50.375 C20.99566183 57.61671867 14.23451527 61.95847274 4.875 63.1875 C-2.37446014 63.68954018 -10.84088492 63.48107672 -17 59.375 C-17 58.715 -17 58.055 -17 57.375 C-18.32 57.045 -19.64 56.715 -21 56.375 C-21 55.715 -21 55.055 -21 54.375 C-21.59425781 54.14425781 -22.18851563 53.91351563 -22.80078125 53.67578125 C-25.57556584 52.03456763 -26.57051 50.33507669 -28.1875 47.5625 C-28.69667969 46.71042969 -29.20585937 45.85835937 -29.73046875 44.98046875 C-33.22401596 37.81063494 -33.41282772 27.58641278 -30.875 20.0625 C-28.26627045 14.22685854 -24.36761626 8.89919249 -19 5.375 C-18.34 5.375 -17.68 5.375 -17 5.375 C-17 4.715 -17 4.055 -17 3.375 C-11.10463557 0.84267301 -6.39024919 -0.09814376 0 0 Z " fill="#F8FBFD" transform="translate(39,3.625)"/>
<path d="M0 0 C7.095 -0.0825 14.19 -0.165 21.5 -0.25 C23.72427734 -0.28641602 25.94855469 -0.32283203 28.24023438 -0.36035156 C30.0247298 -0.37204592 31.80923598 -0.38223597 33.59375 -0.390625 C34.50286133 -0.41108887 35.41197266 -0.43155273 36.34863281 -0.45263672 C42.41432571 -0.45592258 46.93434234 0.56105683 52 4 C55.78008107 7.78008107 56.27901132 10.89576902 56.4375 16.0625 C56.4316362 20.61866918 55.70460046 23.30371271 53 27 C50.3125 28.8125 50.3125 28.8125 48 30 C49.32 30.66 50.64 31.32 52 32 C52 32.66 52 33.32 52 34 C52.928125 34.3403125 52.928125 34.3403125 53.875 34.6875 C56.76058871 36.46977538 57.14672476 37.72911158 58 41 C58.6172474 47.27534853 57.73960131 51.82650249 54 57 C49.27143369 60.84196013 45.49003527 62.13071849 39.50683594 62.11352539 C38.61399902 62.11340454 37.72116211 62.11328369 36.80126953 62.11315918 C35.87169434 62.10804321 34.94211914 62.10292725 33.984375 62.09765625 C33.12344238 62.09664917 32.26250977 62.09564209 31.37548828 62.09460449 C28.16697859 62.08938212 24.95848792 62.07542085 21.75 62.0625 C14.5725 62.041875 7.395 62.02125 0 62 C0 41.54 0 21.08 0 0 Z M20 14 C20 17.3 20 20.6 20 24 C24.03932853 24.28580155 27.97005043 24.45551292 32 24 C34.81768639 21.74066274 34.81768639 21.74066274 36 19 C34.34116421 16.71195063 33.37716693 15.43536563 31 14 C27.29701335 13.55792996 23.71168123 13.70748572 20 14 Z M20 38 C20 41.3 20 44.6 20 48 C21.89510699 48.08160748 23.79124504 48.13946459 25.6875 48.1875 C27.27111328 48.23970703 27.27111328 48.23970703 28.88671875 48.29296875 C32.35422768 47.96666615 34.18432448 46.99030125 37 45 C36.42547254 41.06924356 36.42547254 41.06924356 34 38 C30.64255888 37.75622117 30.64255888 37.75622117 26.875 37.875 C25.59367187 37.89304688 24.31234375 37.91109375 22.9921875 37.9296875 C22.00476563 37.95289063 21.01734375 37.97609375 20 38 Z " fill="#F5FAFD" transform="translate(99,4)"/>
<path d="M0 0 C7.59 0 15.18 0 23 0 C24.32 2.495625 25.64 4.99125 27 7.5625 C31.31561603 15.71784447 35.65386746 23.86087906 40 32 C40 21.44 40 10.88 40 0 C46.27 0 52.54 0 59 0 C59 20.46 59 40.92 59 62 C51.41 62 43.82 62 36 62 C30.5204366 51.9997968 30.5204366 51.9997968 27.92578125 47.0703125 C27.39984375 46.07366577 27.39984375 46.07366577 26.86328125 45.05688477 C26.17419382 43.74899554 25.4878949 42.4396325 24.8046875 41.12866211 C23.06001084 37.82192178 21.26008856 35.01345142 19 32 C18.67 41.9 18.34 51.8 18 62 C12.06 62 6.12 62 0 62 C0 41.54 0 21.08 0 0 Z " fill="#F4FAFD" transform="translate(163,4)"/>
<path d="M0 0 C2.47200828 1.95412945 4.8475295 3.95940864 7.171875 6.0859375 C5.68111066 9.3686307 3.78567179 12.01671191 1.546875 14.8359375 C0.91523438 15.63515625 0.28359375 16.434375 -0.3671875 17.2578125 C-0.84929687 17.86109375 -1.33140625 18.464375 -1.828125 19.0859375 C-4.68603431 18.50109108 -5.86524853 18.05565252 -8.203125 16.1484375 C-13.06945331 12.32489383 -17.7276846 11.6255269 -23.828125 12.0859375 C-24.818125 12.7459375 -25.808125 13.4059375 -26.828125 14.0859375 C-26.828125 14.7459375 -26.828125 15.4059375 -26.828125 16.0859375 C-25.63316406 16.40046875 -24.43820313 16.715 -23.20703125 17.0390625 C-0.39846385 23.13125314 -0.39846385 23.13125314 4.296875 30.3046875 C6.87317394 35.54929606 6.48214296 40.9140618 5.671875 46.5859375 C3.32767027 52.05574853 -0.8641743 55.63340537 -6.1875 58.2421875 C-17.71567737 61.92574713 -32.92256374 61.38841165 -43.703125 56.0234375 C-45.42491697 55.06813517 -47.13885747 54.09764168 -48.828125 53.0859375 C-48.828125 52.4259375 -48.828125 51.7659375 -48.828125 51.0859375 C-49.488125 51.0859375 -50.148125 51.0859375 -50.828125 51.0859375 C-50.5281263 46.28595831 -48.08549839 43.47922183 -45.203125 39.85546875 C-43.76648849 38.12571979 -43.76648849 38.12571979 -42.828125 36.0859375 C-41.178125 36.7459375 -39.528125 37.4059375 -37.828125 38.0859375 C-37.828125 38.7459375 -37.828125 39.4059375 -37.828125 40.0859375 C-27.35517187 43.69861978 -27.35517187 43.69861978 -16.828125 42.0859375 C-16.828125 41.4259375 -16.828125 40.7659375 -16.828125 40.0859375 C-18.76487076 39.47935735 -20.70257425 38.87583511 -22.640625 38.2734375 C-23.8265625 37.89960937 -25.0125 37.52578125 -26.234375 37.140625 C-29.7111649 36.06529199 -29.7111649 36.06529199 -32.859375 35.46875 C-39.24199652 34.15995401 -43.30295512 32.04495419 -47.41796875 26.890625 C-50.14500114 21.46677664 -49.80214762 15.95893316 -48.828125 10.0859375 C-47.140625 6.5234375 -47.140625 6.5234375 -44.828125 4.0859375 C-44.02375 3.1784375 -43.219375 2.2709375 -42.390625 1.3359375 C-33.16270165 -6.76662934 -10.0194864 -6.78114411 0 0 Z " fill="#F4F9FC" transform="translate(277.828125,6.9140625)"/>
<path d="M0 0 C1.41015625 1.37890625 1.41015625 1.37890625 3.28515625 3.75390625 C1.30515625 3.42390625 -0.67484375 3.09390625 -2.71484375 2.75390625 C-2.71484375 2.09390625 -2.71484375 1.43390625 -2.71484375 0.75390625 C-8.38415548 -0.52966297 -13.92562603 -0.46846025 -19.71484375 -0.49609375 C-20.79507813 -0.51671875 -21.8753125 -0.53734375 -22.98828125 -0.55859375 C-24.03242188 -0.56375 -25.0765625 -0.56890625 -26.15234375 -0.57421875 C-27.57353516 -0.5882373 -27.57353516 -0.5882373 -29.0234375 -0.60253906 C-32.9544973 -0.08191612 -35.65052584 1.56187019 -38.27734375 4.50390625 C-38.98890625 5.12265625 -38.98890625 5.12265625 -39.71484375 5.75390625 C-41.90234375 5.44140625 -41.90234375 5.44140625 -43.71484375 4.75390625 C-35.08544852 -4.61515143 -11.00296329 -7.99531957 0 0 Z " fill="#DAF6FE" transform="translate(276.71484375,6.24609375)"/>
<path d="M0 0 C2.35694954 0.09031574 4.71153582 0.24688128 7.0625 0.4375 C8.35285156 0.53933594 9.64320313 0.64117187 10.97265625 0.74609375 C12.47119141 0.87177734 12.47119141 0.87177734 14 1 C14 1.66 14 2.32 14 3 C9.38 3 4.76 3 0 3 C0 6.3 0 9.6 0 13 C4.62 12.67 9.24 12.34 14 12 C13.67 12.66 13.34 13.32 13 14 C8.38 14 3.76 14 -1 14 C-1.09765625 3.94140625 -1.09765625 3.94140625 -1 1 C-0.67 0.67 -0.34 0.34 0 0 Z " fill="#9FC3EF" transform="translate(119,39)"/>
<path d="M0 0 C1.98 0 3.96 0 6 0 C6 0.66 6 1.32 6 2 C6.66 2 7.32 2 8 2 C7.25 6.75 7.25 6.75 5 9 C2.13671875 9.046875 2.13671875 9.046875 -1.3125 8.75 C-3.00826172 8.61851563 -3.00826172 8.61851563 -4.73828125 8.484375 C-7.79722512 8.03011268 -10.20077182 7.2814478 -13 6 C-13 5.34 -13 4.68 -13 4 C-11.845 4.33 -10.69 4.66 -9.5 5 C-4.86167396 6.16370814 0.57479069 7.21260465 5 5 C5 4.34 5 3.68 5 3 C3.35 2.34 1.7 1.68 0 1 C0 0.67 0 0.34 0 0 Z " fill="#9EC3F1" transform="translate(256,44)"/>
<path d="M0 0 C1.25433458 3.76300374 1.10695422 7.27210909 1.0625 11.1875 C1.05798828 11.93708984 1.05347656 12.68667969 1.04882812 13.45898438 C1.03706354 15.30602383 1.01912865 17.15302213 1 19 C1.66 19.33 2.32 19.66 3 20 C2.34 20.66 1.68 21.32 1 22 C-2.33623412 18.47890858 -2.37790691 15.74954824 -2.3125 11 C-2.30863281 9.783125 -2.30476562 8.56625 -2.30078125 7.3125 C-2.02418833 4.26638572 -1.6023478 2.55354231 0 0 Z " fill="#B1D9F9" transform="translate(231,13)"/>
<path d="M0 0 C3.52787322 6.82055488 4.1393379 13.69042148 2 21.125 C1.67 22.07375 1.34 23.0225 1 24 C0.34 23.34 -0.32 22.68 -1 22 C-0.63110352 20.14550781 -0.63110352 20.14550781 0 18 C0.07766084 16.55901569 0.10796367 15.11491371 0.09765625 13.671875 C0.09443359 12.87265625 0.09121094 12.0734375 0.08789062 11.25 C0.07951172 10.425 0.07113281 9.6 0.0625 8.75 C0.05573242 7.48929688 0.05573242 7.48929688 0.04882812 6.203125 C0.03707961 4.13538599 0.01914522 2.06768376 0 0 Z " fill="#BDE1FC" transform="translate(68,23)"/>
<path d="M0 0 C2.45840605 -0.02691685 4.91651882 -0.04679802 7.375 -0.0625 C8.07367188 -0.07087891 8.77234375 -0.07925781 9.4921875 -0.08789062 C14.7734375 -0.11328125 14.7734375 -0.11328125 17 1 C18.53712084 3.34613181 19.09239476 4.44563145 18.625 7.25 C18.315625 8.11625 18.315625 8.11625 18 9 C16.68 9.33 15.36 9.66 14 10 C14.66 8.35 15.32 6.7 16 5 C12.61416198 1.86892164 10.28890538 1.66449222 5.75 1.8125 C4.67234375 1.83957031 3.5946875 1.86664062 2.484375 1.89453125 C1.66453125 1.92933594 0.8446875 1.96414062 0 2 C0 1.34 0 0.68 0 0 Z " fill="#A2CEF0" transform="translate(118,17)"/>
<path d="M0 0 C1.32 0.33 2.64 0.66 4 1 C4 1.66 4 2.32 4 3 C5.32 2.67 6.64 2.34 8 2 C8.3403125 2.9590625 8.3403125 2.9590625 8.6875 3.9375 C9.85250896 6.27193661 9.85250896 6.27193661 12.625 6.75 C13.40875 6.8325 14.1925 6.915 15 7 C15.33 7.99 15.66 8.98 16 10 C9.25 8.125 9.25 8.125 7 7 C7 6.34 7 5.68 7 5 C5.68 4.67 4.36 4.34 3 4 C3 3.34 3 2.68 3 2 C2.01 1.67 1.02 1.34 0 1 C0 0.67 0 0.34 0 0 Z " fill="#A4D3F4" transform="translate(15,56)"/>
<path d="M0 0 C0 0.66 0 1.32 0 2 C-1.65071396 3.02611949 -3.31970006 4.02308143 -5 5 C-5.7734375 5.86625 -5.7734375 5.86625 -6.5625 6.75 C-7.036875 7.1625 -7.51125 7.575 -8 8 C-10.1875 7.6875 -10.1875 7.6875 -12 7 C-8.5063473 3.20689136 -5.42241937 0 0 0 Z " fill="#B0D2F5" transform="translate(245,4)"/>
<path d="M0 0 C0 0.66 0 1.32 0 2 C-0.99 2 -1.98 2 -3 2 C-3 2.66 -3 3.32 -3 4 C-1.68 4 -0.36 4 1 4 C0.67 5.32 0.34 6.64 0 8 C-0.53625 7.54625 -1.0725 7.0925 -1.625 6.625 C-4.31698302 4.78311688 -6.88520388 3.92028067 -10 3 C-10 2.67 -10 2.34 -10 2 C-3.375 0 -3.375 0 0 0 Z " fill="#BAD6F2" transform="translate(271,16)"/>
<path d="M0 0 C0.66 0.33 1.32 0.66 2 1 C1.3503125 1.5878125 1.3503125 1.5878125 0.6875 2.1875 C-2.25671424 5.34980419 -4.13625929 9.12915391 -6 13 C-6.66 13 -7.32 13 -8 13 C-7.19631101 7.77602153 -3.85808027 3.47227224 0 0 Z " fill="#A5CDFC" transform="translate(18,10)"/>
<path d="M0 0 C5.35048061 0.37328935 7.50912907 1.9957657 11 6 C8.03 5.505 8.03 5.505 5 5 C5 4.34 5 3.68 5 3 C3.35 2.67 1.7 2.34 0 2 C0 1.34 0 0.68 0 0 Z " fill="#99C0F2" transform="translate(269,4)"/>
<path d="M0 0 C2.475 0.99 2.475 0.99 5 2 C5 2.66 5 3.32 5 4 C4.2575 4.103125 3.515 4.20625 2.75 4.3125 C-0.17014018 5.04253504 -1.73187554 6.06789398 -4 8 C-2.66666667 5.33333333 -1.33333333 2.66666667 0 0 Z " fill="#A0CEFA" transform="translate(235,43)"/>
<path d="M0 0 C3.3 0 6.6 0 10 0 C10.66 1.32 11.32 2.64 12 4 C7.80530429 3.40075776 3.99000166 2.42500059 0 1 C0 0.67 0 0.34 0 0 Z " fill="#B9D5F9" transform="translate(236,38)"/>
<path d="M0 0 C3.0916909 2.52956528 3.90931332 5.22454612 5 9 C3.0625 8.625 3.0625 8.625 1 8 C-0.35439668 5.29120665 -0.06501451 2.99066732 0 0 Z " fill="#B8DAF5" transform="translate(194,21)"/>
<path d="M0 0 C1.32 0.99 2.64 1.98 4 3 C2.55746343 6.36591866 0.66735273 8.51047079 -2 11 C-2 10.01 -2 9.02 -2 8 C-1.34 8 -0.68 8 0 8 C0 5.36 0 2.72 0 0 Z " fill="#AAD3FC" transform="translate(281,10)"/>
<path d="M0 0 C-4.455 1.485 -4.455 1.485 -9 3 C-9.66 2.34 -10.32 1.68 -11 1 C-4.5 -1.125 -4.5 -1.125 0 0 Z " fill="#ADD6F6" transform="translate(276,63)"/>
<path d="M0 0 C0.99 0 1.98 0 3 0 C2.67 2.64 2.34 5.28 2 8 C0.68 7.67 -0.64 7.34 -2 7 C-1.34 6.34 -0.68 5.68 0 5 C0.16687448 2.41645782 0.16687448 2.41645782 0 0 Z " fill="#C1E0F9" transform="translate(135,44)"/>
</svg>
