<?xml version="1.0" encoding="UTF-8"?>
<svg version="1.1" xmlns="http://www.w3.org/2000/svg" width="1280" height="229">
<path d="M0 0 C21.12 0 42.24 0 64 0 C67.23634456 7.11995803 70.33625549 14.16328032 73.16015625 21.4375 C73.54254456 22.41507767 73.92493286 23.39265533 74.31890869 24.39985657 C75.56953114 27.59883449 76.81598177 30.79942086 78.0625 34 C78.94718603 36.26469355 79.83220185 38.52925829 80.7175293 40.79370117 C82.55843033 45.50307368 84.39791219 50.21299669 86.23632812 54.92333984 C90.1640709 64.98425814 94.10657796 75.0393838 98.05020142 85.09408569 C99.31781586 88.32605357 100.58505967 91.55816663 101.85229492 94.7902832 C106.09435232 105.60760453 110.34325844 116.4221491 114.61376953 127.22827148 C115.7802084 130.17985183 116.94381612 133.13252244 118.10498047 136.08618164 C121.21439936 143.98859316 124.34908935 151.87989074 127.52590561 159.75550175 C129.57649097 164.8405881 131.61474843 169.93052556 133.64625931 175.02326107 C134.9072896 178.18243623 136.17451489 181.33880424 137.45697021 184.48934937 C138.8921463 188.02321886 140.30555646 191.56511637 141.71484375 195.109375 C142.1484169 196.16198013 142.58199005 197.21458527 143.02870178 198.29908752 C145.95651958 205.75040729 147.4808598 212.4703112 144.9375 220.25 C141.92085699 224.53168685 138.85359518 228.39559695 133.51858521 229.52557373 C130.59990055 229.69254661 127.73849878 229.67519516 124.81640625 229.5859375 C123.76090073 229.57744781 122.7053952 229.56895813 121.61790466 229.56021118 C118.26504041 229.52677304 114.91463043 229.45150739 111.5625 229.375 C109.28193591 229.3448882 107.00133391 229.31751454 104.72070312 229.29296875 C99.14630591 229.22701363 93.57332832 229.12676128 88 229 C81.64114515 213.25198815 75.44199202 197.45124391 69.41162109 181.574646 C67.15652148 175.63789302 64.89427594 169.70386234 62.6328125 163.76953125 C62.17038147 162.55559692 61.70795044 161.3416626 61.23150635 160.09094238 C56.18209047 146.84162225 51.09379506 133.60730932 46 120.375 C45.57930237 119.28198578 45.15860474 118.18897156 44.72515869 117.06283569 C42.80034255 112.06220673 40.87506063 107.06175745 38.94921875 102.06152344 C36.63076195 96.04180392 34.31480986 90.02112288 32 84 C26.64403839 97.24304116 21.4676418 110.54489759 16.41864014 123.9078064 C14.36461795 129.34269955 12.30350191 134.77490044 10.2421875 140.20703125 C9.81535675 141.33196487 9.388526 142.4568985 8.94876099 143.61592102 C4.12495912 156.31955419 -0.74606339 169.00495909 -5.625 181.6875 C-6.0319812 182.74622314 -6.4389624 183.80494629 -6.85827637 184.89575195 C-12.51861983 199.61827257 -18.23605185 214.31773328 -24 229 C-30.72594266 229.1015993 -37.45168668 229.17154911 -44.17822266 229.21972656 C-46.46540726 229.23981517 -48.75254068 229.26709128 -51.03955078 229.30175781 C-54.33118334 229.35039558 -57.62213557 229.37299679 -60.9140625 229.390625 C-62.44252304 229.42159271 -62.44252304 229.42159271 -64.00186157 229.45318604 C-69.85793914 229.45502797 -73.41724613 229.03690588 -78 225 C-81.89546831 220.07940844 -82.66010913 216.05752063 -82.55419922 209.83789062 C-81.28489082 201.04779018 -77.26734621 192.89710612 -73.875 184.75 C-73.01750869 182.64630063 -72.16241987 180.54162059 -71.30957031 178.43603516 C-69.95923036 175.1039705 -68.60700278 171.77277337 -67.24707031 168.4446106 C-62.43356099 156.66394347 -57.78976881 144.81834321 -53.15509033 132.96643066 C-50.822427 127.00411036 -48.48126895 121.04512831 -46.140625 115.0859375 C-45.69308868 113.94608398 -45.24555237 112.80623047 -44.78445435 111.63183594 C-40.46680349 100.63676109 -36.13069382 89.64902202 -31.78491211 78.66503906 C-28.19821812 69.59479917 -24.63450934 60.51574655 -21.08400345 51.43128204 C-19.57865257 47.58074532 -18.07137198 43.73096334 -16.56420326 39.88113785 C-15.32210883 36.70770893 -14.08150714 33.53371217 -12.84423828 30.35839844 C-11.45811512 26.80271172 -10.06738042 23.24885896 -8.67578125 19.6953125 C-8.26286331 18.63240997 -7.84994537 17.56950745 -7.42451477 16.47439575 C-7.03217148 15.47495941 -6.63982819 14.47552307 -6.2355957 13.44580078 C-5.89889359 12.58334747 -5.56219147 11.72089417 -5.21528625 10.83230591 C-3.63508536 7.14954203 -1.79219333 3.58438666 0 0 Z " fill="#1EA8BD" transform="translate(82,0)"/>
<path d="M0 0 C1.01568558 -0.00637985 2.03137115 -0.0127597 3.07783508 -0.01933289 C4.17774277 -0.02044571 5.27765045 -0.02155853 6.41088867 -0.02270508 C7.54983078 -0.02603348 8.68877289 -0.02936188 9.86222839 -0.03279114 C12.28070675 -0.03786085 14.69919212 -0.04019945 17.11767578 -0.04003906 C20.77608227 -0.04220508 24.43417702 -0.06030338 28.0925293 -0.0793457 C57.63179538 -0.15298037 80.62827709 4.5401241 102.70385742 25.45776367 C119.60452314 42.83534412 124.24674076 66.19804601 124.26635742 89.58276367 C124.26703217 90.30146637 124.26770691 91.02016907 124.2684021 91.76065063 C124.24512218 107.33578879 122.51931712 120.76049321 116.01635742 135.14526367 C115.38793945 136.54518555 115.38793945 136.54518555 114.74682617 137.97338867 C110.80416817 145.92687744 105.2281434 151.92453988 99.01635742 158.14526367 C98.35764648 158.81557617 97.69893555 159.48588867 97.02026367 160.17651367 C76.90941605 179.20613293 50.09862069 180.5099868 23.94262695 180.4609375 C20.36403976 180.45773926 16.78625144 180.48144619 13.20776367 180.5065918 C10.92260846 180.50886161 8.63745103 180.50956977 6.35229492 180.50854492 C5.28772064 180.51775467 4.22314636 180.52696442 3.12631226 180.53645325 C-6.1269308 180.47836868 -6.1269308 180.47836868 -9.98364258 177.14526367 C-11.43416652 174.24421578 -11.116348 171.71995841 -11.12408447 168.47781372 C-11.12705559 167.78472323 -11.13002672 167.09163275 -11.13308787 166.37753952 C-11.14179334 164.04375451 -11.14328467 161.71002068 -11.14477539 159.3762207 C-11.14940224 157.7075591 -11.15442671 156.03889856 -11.15982056 154.37023926 C-11.17295889 149.82891204 -11.17939223 145.28759961 -11.18383121 140.74625635 C-11.18675945 137.9109429 -11.19086377 135.07563352 -11.19533539 132.24032211 C-11.2090137 123.37484795 -11.21867889 114.50938306 -11.22253728 105.64389908 C-11.2270199 95.39954919 -11.24457583 85.15533261 -11.27353787 74.91102326 C-11.29513132 66.99930582 -11.3052403 59.08762596 -11.3065784 51.17587936 C-11.30762805 46.44732093 -11.3135698 41.71888775 -11.33139801 36.99036026 C-11.3478385 32.54329104 -11.35005387 28.09644175 -11.341259 23.64935303 C-11.34048648 22.01589241 -11.34485958 20.38242016 -11.35471725 18.74898911 C-11.36737433 16.5212889 -11.3615947 14.29437504 -11.35113525 12.06668091 C-11.35260181 10.81932726 -11.35406837 9.57197361 -11.35557938 8.28682137 C-10.95387057 4.89379489 -10.40370833 3.51499492 -7.98364258 1.14526367 C-5.02716331 0.15977058 -3.08370465 0.01316804 0 0 Z M18.01635742 29.14526367 C18.01635742 69.40526367 18.01635742 109.66526367 18.01635742 151.14526367 C52.68922276 151.37725421 52.68922276 151.37725421 80.86791992 134.42260742 C92.54367183 121.75890727 95.60500721 102.65748763 94.93041992 86.02661133 C93.91028549 69.56569206 89.5807051 54.31275173 77.51635742 42.45776367 C60.18070971 28.30143359 39.62870148 29.14526367 18.01635742 29.14526367 Z " fill="#11344C" transform="translate(1155.983642578125,30.854736328125)"/>
<path d="M0 0 C3 1 3 1 4.04792786 2.86940002 C4.36573715 3.69310593 4.68354645 4.51681183 5.01098633 5.36547852 C5.38105804 6.30797958 5.75112976 7.25048065 6.13241577 8.22154236 C6.52828888 9.26347244 6.92416199 10.30540253 7.33203125 11.37890625 C7.75626373 12.4681691 8.18049622 13.55743195 8.61758423 14.67970276 C9.78230859 17.67581521 10.93703014 20.67556307 12.08784103 23.6770401 C13.30471158 26.84316476 14.53469604 30.0041814 15.76391602 33.16552734 C17.55798304 37.78238036 19.34847437 42.40058791 21.13440228 47.02059555 C25.72461121 58.89321297 30.38196683 70.73913263 35.04403687 82.58370972 C36.44315461 86.1393704 37.84063133 89.69567164 39.23754883 93.25219727 C43.73204949 104.69489801 48.231503 116.13559943 52.75 127.56884766 C53.90511695 130.4919175 55.05734586 133.41609835 56.20703125 136.34130859 C59.27916823 144.15114721 62.37726015 151.94956916 65.51675606 159.73262787 C67.56933346 164.82265884 69.60955582 169.91755197 71.64304924 175.0152359 C72.90533392 178.1775433 74.17379583 181.33705092 75.45751953 184.49072266 C76.8925109 188.02413509 78.30574008 191.56557389 79.71484375 195.109375 C80.14840683 196.16195496 80.58196991 197.21453491 81.02867126 198.29901123 C83.95650138 205.75035897 85.48087063 212.47027808 82.9375 220.25 C79.92085699 224.53168685 76.85359518 228.39559695 71.51858521 229.52557373 C68.59990055 229.69254661 65.73849878 229.67519516 62.81640625 229.5859375 C61.76090073 229.57744781 60.7053952 229.56895813 59.61790466 229.56021118 C56.26504041 229.52677304 52.91463043 229.45150739 49.5625 229.375 C47.28193591 229.3448882 45.00133391 229.31751454 42.72070312 229.29296875 C37.14630591 229.22701363 31.57332832 229.12676128 26 229 C19.64114515 213.25198815 13.44199202 197.45124391 7.41162109 181.574646 C5.15652148 175.63789302 2.89427594 169.70386234 0.6328125 163.76953125 C0.17038147 162.55559692 -0.29204956 161.3416626 -0.76849365 160.09094238 C-5.81790953 146.84162225 -10.90620494 133.60730932 -16 120.375 C-16.42069763 119.28198578 -16.84139526 118.18897156 -17.27484131 117.06283569 C-18.0883732 114.94929818 -18.9022548 112.83589524 -19.71652222 110.72264099 C-20.47559579 108.74927167 -21.23229659 106.77498762 -21.98635864 104.79969788 C-23.50275598 100.83420385 -25.02827049 96.8830269 -26.703125 92.98144531 C-27.17234375 91.86608398 -27.6415625 90.75072266 -28.125 89.6015625 C-28.51945312 88.71033691 -28.91390625 87.81911133 -29.3203125 86.90087891 C-31.19464184 78.9013167 -27.98544256 71.44320882 -25.09765625 64.0625 C-24.70382751 63.03152191 -24.30999878 62.00054382 -23.90423584 60.93832397 C-22.63402814 57.62145568 -21.34866661 54.31070866 -20.0625 51 C-19.19089911 48.73417557 -18.3200501 46.46806177 -17.44995117 44.20166016 C-11.76255313 29.41750937 -6.0164314 14.65388242 0 0 Z " fill="#023958" transform="translate(144,0)"/>
<path d="M0 0 C16.561875 -0.061875 33.12375 -0.12375 50.1875 -0.1875 C55.41489014 -0.21481201 60.64228027 -0.24212402 66.02807617 -0.27026367 C72.41662598 -0.28381348 72.41662598 -0.28381348 75.40840149 -0.28633118 C77.49570128 -0.2909347 79.58299314 -0.30147928 81.67024231 -0.31672668 C84.83393188 -0.33868008 87.99713437 -0.34171822 91.16088867 -0.34057617 C92.08910274 -0.3513705 93.0173168 -0.36216482 93.97365856 -0.37328625 C98.75374156 -0.35018087 102.1974194 -0.25326434 106 3 C107.33134925 6.99404776 107.30182913 10.69095636 107.375 14.875 C107.43107422 16.07962891 107.43107422 16.07962891 107.48828125 17.30859375 C107.49988281 18.09105469 107.51148438 18.87351562 107.5234375 19.6796875 C107.5531665 20.74292236 107.5531665 20.74292236 107.58349609 21.82763672 C106.65588804 25.28113316 104.72702045 26.75722416 102 29 C98.62736511 29.60127258 98.62736511 29.60127258 94.73120117 29.56762695 C93.66209 29.56872215 93.66209 29.56872215 92.57138062 29.56983948 C90.2277882 29.56637046 87.88621158 29.52754707 85.54296875 29.48828125 C83.91344793 29.47895056 82.28391305 29.47183565 80.65437317 29.46684265 C76.37473521 29.44779269 72.09595176 29.39871017 67.81665039 29.34332275 C62.67725533 29.28307123 57.53757382 29.26020439 52.39792633 29.23105621 C44.59802406 29.1826428 36.79999504 29.08681667 29 29 C29 42.53 29 56.06 29 70 C35.19330078 69.91298828 35.19330078 69.91298828 41.51171875 69.82421875 C44.8102162 69.79204906 48.10866915 69.76494061 51.40723419 69.74124908 C54.88598768 69.71487755 58.36412911 69.67965775 61.8425293 69.62280273 C65.83648499 69.55793166 69.82979558 69.53379138 73.82421875 69.51171875 C75.06709152 69.48591232 76.30996429 69.4601059 77.59049988 69.43351746 C86.17007405 69.43072624 86.17007405 69.43072624 90.28198242 72.2512207 C91.98172695 74.97076363 92.63993646 76.31168494 92.6640625 79.46875 C92.67050781 80.28730469 92.67695312 81.10585937 92.68359375 81.94921875 C92.65458984 83.21185547 92.65458984 83.21185547 92.625 84.5 C92.65400391 85.76263672 92.65400391 85.76263672 92.68359375 87.05078125 C92.67714844 87.86933594 92.67070313 88.68789062 92.6640625 89.53125 C92.65842285 90.26923828 92.6527832 91.00722656 92.64697266 91.76757812 C91.5536001 95.54033232 90.26929086 96.75748486 87 99 C82.60552842 99.70009281 78.26397182 99.5804662 73.82421875 99.48828125 C72.54392288 99.48120651 71.26362701 99.47413177 69.9445343 99.46684265 C66.55254688 99.44781714 63.16164226 99.39875838 59.77008057 99.34332275 C56.30455434 99.29203203 52.83884669 99.26903329 49.37304688 99.24414062 C42.58107722 99.1932873 35.79207477 99.09542409 29 99 C29 116.16 29 133.32 29 151 C37.15976562 150.93039063 37.15976562 150.93039063 45.484375 150.859375 C48.92970657 150.83893788 52.37496346 150.81968229 55.8203125 150.8046875 C61.28954581 150.78077166 66.75851139 150.75247321 72.22753906 150.69824219 C76.63660873 150.65479512 81.0453913 150.63086522 85.45465851 150.62049103 C87.13721487 150.61309757 88.81975543 150.59865983 90.50218964 150.57707977 C92.85825101 150.54805997 95.21312473 150.54404325 97.56933594 150.54589844 C98.26561096 150.53151733 98.96188599 150.51713623 99.67926025 150.50231934 C103.04953483 150.53105224 104.73335446 150.79369264 107.43305969 152.88249207 C109.312955 155.42291636 109.50301086 156.74425192 109.49609375 159.87890625 C109.49673828 160.79994141 109.49738281 161.72097656 109.49804688 162.66992188 C109.47806641 163.62447266 109.45808594 164.57902344 109.4375 165.5625 C109.44458984 166.52091797 109.45167969 167.47933594 109.45898438 168.46679688 C109.39501517 175.48864721 109.39501517 175.48864721 107.66040039 177.73413086 C104.7966783 179.91739788 102.19770413 180.12447954 98.72895813 180.12025452 C97.42549549 180.12232076 97.42549549 180.12232076 96.09570026 180.12442875 C95.14155326 180.12083064 94.18740625 180.11723253 93.2043457 180.11352539 C91.67237061 180.11370619 91.67237061 180.11370619 90.10944653 180.11389065 C86.79820274 180.11314331 83.48701499 180.10552314 80.17578125 180.09765625 C78.13358589 180.09618628 76.09139015 180.09516591 74.04919434 180.09460449 C66.47029048 180.08935801 58.89139469 180.07539685 51.3125 180.0625 C25.9128125 180.0315625 25.9128125 180.0315625 0 180 C0 120.6 0 61.2 0 0 Z " fill="#11344C" transform="translate(426,31)"/>
<path d="M0 0 C0.80308594 -0.020625 1.60617187 -0.04125 2.43359375 -0.0625 C7.12604931 -0.09342228 10.37160775 0.10009434 14.125 3.25 C15.09957262 6.17371786 15.25188622 8.04221015 15.25630188 11.0856781 C15.26031006 12.08215866 15.26431824 13.07863922 15.26844788 14.10531616 C15.26791916 15.19776642 15.26739044 16.29021667 15.2668457 17.41577148 C15.27205734 19.14315804 15.27205734 19.14315804 15.27737427 20.90544128 C15.284736 23.41159518 15.29007915 25.91775562 15.29366493 28.42391777 C15.3008281 32.39708014 15.3161445 36.37015758 15.33500671 40.34327698 C15.3413444 41.70567602 15.34767002 43.06807513 15.35398388 44.43047428 C15.35714969 45.11288217 15.3603155 45.79529005 15.36357725 46.49837697 C15.40556379 55.74556523 15.43858085 64.99271308 15.45092773 74.23999023 C15.45934455 80.47976818 15.48197261 86.71932642 15.5202834 92.95899445 C15.53993258 96.2559142 15.55025465 99.55243688 15.54744911 102.84942436 C15.54508259 106.53984029 15.56736881 110.2293806 15.5949707 113.91967773 C15.58836929 114.99390991 15.58176788 116.06814209 15.57496643 117.17492676 C15.69986847 127.41200076 17.89240965 137.11544019 25.20703125 144.6328125 C34.08907898 152.12195254 44.96531632 152.88219883 56.125 152.25 C64.11561972 151.47104022 71.47908335 148.18697722 76.984375 142.2421875 C83.52901853 133.20280362 84.57270817 123.01393467 84.47802734 112.15673828 C84.48018753 111.00248856 84.48234772 109.84823883 84.48457336 108.65901184 C84.4876426 106.17316784 84.48410738 103.68730843 84.47455978 101.20148087 C84.46075137 97.26728188 84.46729892 93.3335832 84.47940063 89.39938354 C84.50936737 78.92913154 84.50801356 68.45893671 84.48914778 57.98866355 C84.47563011 50.42750581 84.48472022 42.86683321 84.51524734 35.30572128 C84.52069294 32.69739901 84.51661134 30.08903888 84.50284958 27.48074722 C84.4838608 23.84237208 84.49516314 20.20524725 84.51318359 16.56689453 C84.49317543 14.95067451 84.49317543 14.95067451 84.47276306 13.30180359 C84.55329195 6.00581218 84.55329195 6.00581218 87.52272034 2.08015442 C90.22462281 0.17993639 91.38300057 -0.36726528 94.62890625 -0.30859375 C95.45197266 -0.30150391 96.27503906 -0.29441406 97.12304688 -0.28710938 C97.96931641 -0.25423828 98.81558594 -0.22136719 99.6875 -0.1875 C100.53763672 -0.18169922 101.38777344 -0.17589844 102.26367188 -0.16992188 C106.42774448 -0.08827339 109.49846859 0.01688003 113.125 2.25 C114.36144791 4.72289582 114.25904003 6.36821961 114.27217102 9.13505554 C114.28290398 10.68431732 114.28290398 10.68431732 114.29385376 12.26487732 C114.29654266 13.40296341 114.29923157 14.5410495 114.30200195 15.71362305 C114.30857315 16.90901703 114.31514435 18.10441101 114.32191467 19.33602905 C114.34169883 23.31126147 114.35333031 27.28645336 114.36328125 31.26171875 C114.36733015 32.6339552 114.37144711 34.00619146 114.37563133 35.37842751 C114.39470101 41.83640347 114.40891924 48.294368 114.4172433 54.75236672 C114.42697437 62.17806887 114.45317707 69.60346962 114.49374419 77.02906579 C114.52408472 82.78301082 114.53872965 88.53687049 114.54202431 94.29089385 C114.54435768 97.71929498 114.55308829 101.14737491 114.57848549 104.57568932 C114.72330938 127.24389158 113.63271524 147.38293702 97.0234375 164.640625 C82.29390029 177.90117871 64.37906965 183.03232316 44.6875 182.1875 C27.17058576 181.05221847 12.30233765 173.89885072 0.125 161.25 C-12.75352985 145.99119712 -15.0151064 127.95590899 -15.03613281 108.72924805 C-15.04358017 107.07124428 -15.04358017 107.07124428 -15.05117798 105.37974548 C-15.06567525 101.7570634 -15.07257709 98.13442495 -15.078125 94.51171875 C-15.08388225 91.98208109 -15.08963991 89.45244344 -15.09539795 86.92280579 C-15.1045356 82.30990476 -15.11085332 77.69701613 -15.1138947 73.0841071 C-15.11838913 66.30761946 -15.13602228 59.53133213 -15.1648953 52.7549054 C-15.18911726 46.86452084 -15.19683855 40.97418627 -15.19857025 35.08374977 C-15.20159843 32.5842663 -15.20963246 30.08478372 -15.22275543 27.58533287 C-15.23977384 24.09799196 -15.2379469 20.61114466 -15.23144531 17.1237793 C-15.2406601 16.09148193 -15.24987488 15.05918457 -15.2593689 13.99560547 C-15.20682636 5.01734026 -15.20682636 5.01734026 -11.875 1.25 C-7.87389877 -0.08370041 -4.18996597 0.02664525 0 0 Z " fill="#11344C" transform="translate(726.875,30.75)"/>
<path d="M0 0 C8.85049489 -0.07007136 17.70089163 -0.12309715 26.55160522 -0.15543652 C30.66308518 -0.17097197 34.77437285 -0.19198305 38.88574219 -0.22631836 C42.86692138 -0.25935143 46.84791778 -0.27694362 50.82922363 -0.28463173 C52.33437979 -0.29009764 53.83952802 -0.30076603 55.34460449 -0.31719017 C73.06607105 -0.5025624 91.96737917 1.44693073 105.484375 14.28125 C115.75994048 25.93395313 120.41519626 38.44674674 120.3125 53.875 C120.30512817 55.19153564 120.30512817 55.19153564 120.29760742 56.53466797 C120.17959199 63.07211777 119.48274579 68.89867734 117 75 C116.67128906 75.83402344 116.34257813 76.66804688 116.00390625 77.52734375 C110.94296909 88.8925625 101.42472998 98.54586071 89.875 103.28125 C83.66676049 105.41152826 77.71526005 107.13130798 71.11791992 107.11352539 C70.17732224 107.11344986 69.23672455 107.11337433 68.2676239 107.11329651 C67.2653627 107.10813522 66.2631015 107.10297394 65.23046875 107.09765625 C64.19432938 107.0962413 63.15819 107.09482635 62.09065247 107.09336853 C58.78957196 107.08778242 55.48855992 107.07523242 52.1875 107.0625 C49.94596452 107.05748321 47.70442798 107.05292061 45.46289062 107.04882812 C39.97523716 107.03781753 34.48762347 107.02109318 29 107 C29.00666183 107.85777542 29.01332367 108.71555084 29.02018738 109.59931946 C29.08026362 117.67751797 29.12595661 125.75564161 29.15543652 133.83401203 C29.17110189 137.98733857 29.19235582 142.14048075 29.22631836 146.29370117 C29.2588811 150.30075585 29.27684645 154.30763304 29.28463173 158.3148098 C29.29018082 159.84466535 29.30101676 161.37451103 29.31719017 162.90429115 C29.33892415 165.04488855 29.34196872 167.18474973 29.34057617 169.32543945 C29.34723801 170.54455521 29.35389984 171.76367096 29.36076355 173.01972961 C29 176 29 176 27.60371399 177.85466003 C23.71349789 180.63297338 19.79713439 180.22098578 15.1875 180.25 C13.97610352 180.2809375 13.97610352 180.2809375 12.74023438 180.3125 C8.00207208 180.34354447 4.83604184 180.10500833 1 177 C-0.47716488 174.04567025 -0.12261402 171.41440129 -0.12025452 168.11581421 C-0.12110894 167.3994837 -0.12196337 166.68315318 -0.12284368 165.94511569 C-0.12449732 163.53288411 -0.11897901 161.12072132 -0.11352539 158.70849609 C-0.11324347 156.9840851 -0.11340135 155.25967399 -0.1139679 153.53526306 C-0.11425567 148.84337192 -0.10836213 144.15150617 -0.10139394 139.45962095 C-0.09515711 134.56020962 -0.09455634 129.66079775 -0.09336853 124.76138306 C-0.09025619 115.478919 -0.0820441 106.19646667 -0.07201904 96.91400778 C-0.0608549 86.34826317 -0.05534669 75.78251802 -0.05032361 65.21676898 C-0.03986142 43.47783943 -0.02226384 21.73892045 0 0 Z M29 29 C29 45.5 29 62 29 79 C35.39375 79.061875 41.7875 79.12375 48.375 79.1875 C50.37224121 79.21481201 52.36948242 79.24212402 54.42724609 79.27026367 C71.31615381 79.45375268 71.31615381 79.45375268 85.37109375 70.92578125 C90.63175858 64.70633818 90.59932292 57.61778121 90.40234375 49.69921875 C89.69793855 43.22279427 87.77384077 38.40860195 82.8046875 34.09375 C77.79458955 30.58833493 73.73477733 28.86842713 67.59863281 28.88647461 C66.72609863 28.88659546 65.85356445 28.88671631 64.95458984 28.88684082 C64.04660645 28.89195679 63.13862305 28.89707275 62.203125 28.90234375 C61.36185059 28.90335083 60.52057617 28.90435791 59.65380859 28.90539551 C56.51919181 28.91061705 53.3845945 28.92457832 50.25 28.9375 C39.73125 28.9684375 39.73125 28.9684375 29 29 Z " fill="#11344D" transform="translate(873,31)"/>
<path d="M0 0 C12.65593296 11.39735342 12.65593296 11.39735342 13.2421875 17.91650391 C13.15559267 21.41493509 12.60990806 22.42668769 10.08203125 24.92431641 C7.24581061 26.99326874 4.38166158 28.86839656 1.3671875 30.66650391 C0.56667969 31.25689453 -0.23382813 31.84728516 -1.05859375 32.45556641 C-4.71524623 34.17569124 -6.78776425 33.78905155 -10.6328125 32.66650391 C-13.1875 30.30322266 -13.1875 30.30322266 -15.5078125 27.35400391 C-20.40438189 21.64998207 -24.43318373 18.40304491 -31.94921875 17.33837891 C-37.11210731 17.09377505 -41.08575174 18.08092034 -45.6328125 20.66650391 C-49.52633605 24.56002745 -51.58615657 28.4887169 -51.66796875 34.06103516 C-51.19726619 41.71856225 -48.60135314 45.97976622 -43.0078125 51.16650391 C-35.23747361 57.62616063 -26.31791485 61.89672095 -17.1953125 66.10400391 C0.10340314 74.2651248 15.10529242 83.24107197 22.2421875 102.04150391 C25.25455604 113.3558167 24.79574872 127.84864444 20.3671875 138.66650391 C19.98820312 139.63587891 19.60921875 140.60525391 19.21875 141.60400391 C13.57138789 154.40033886 3.25024742 163.61392643 -9.5859375 168.87744141 C-25.54678332 174.42049377 -43.36470753 174.16299032 -58.81640625 167.14697266 C-74.66780462 158.81454549 -85.14535896 145.72532685 -90.6328125 128.66650391 C-91.4692127 125.34878311 -91.41572214 124.15948536 -90.6328125 120.66650391 C-88.2826337 118.1229942 -85.57988532 116.45184666 -82.6328125 114.66650391 C-81.59253906 113.93367188 -81.59253906 113.93367188 -80.53125 113.18603516 C-77.42722894 111.0467774 -75.11768826 109.75974924 -71.3828125 109.04150391 C-68.6328125 109.66650391 -68.6328125 109.66650391 -66.5078125 111.54150391 C-64.92332314 114.1823195 -63.93076873 116.43012776 -62.8828125 119.29150391 C-59.68234215 127.65523307 -54.60009628 135.49750813 -46.55859375 139.80712891 C-38.34989581 143.47023955 -30.49285193 143.81635838 -21.9453125 141.16650391 C-15.28572076 138.50644035 -11.47261945 134.1861346 -8.1953125 127.91650391 C-7.12364962 121.72467396 -6.1731679 114.64233538 -9.1328125 108.85400391 C-15.22244112 100.22007839 -24.09452956 96.20681055 -33.34423828 91.77734375 C-72.31142517 72.86325154 -72.31142517 72.86325154 -80.44921875 51.52587891 C-83.38891445 40.75384712 -82.53995324 28.01193309 -78.6328125 17.66650391 C-78.37757813 16.97427734 -78.12234375 16.28205078 -77.859375 15.56884766 C-73.05889995 4.49252219 -63.06755819 -3.69366157 -52.1796875 -8.39208984 C-35.1463067 -14.44647179 -14.16733611 -11.5702736 0 0 Z " fill="#11344C" transform="translate(377.6328125,40.33349609375)"/>
<path d="M0 0 C1.12591553 0.00523682 2.25183105 0.01047363 3.41186523 0.01586914 C4.62680664 0.0190918 5.84174805 0.02231445 7.09350586 0.02563477 C8.37290039 0.03401367 9.65229492 0.04239258 10.97045898 0.05102539 C12.2537207 0.05553711 13.53698242 0.06004883 14.85913086 0.06469727 C18.04211921 0.07652994 21.22501661 0.09301471 24.40795898 0.11352539 C27.3394453 7.23612964 29.96962132 14.42856051 32.46264648 21.71508789 C33.02959732 23.36179977 33.02959732 23.36179977 33.60800171 25.04177856 C34.41593729 27.38902602 35.22280453 29.73664143 36.02868652 32.08459473 C38.16284181 38.30178891 40.30535458 44.51610312 42.44702148 50.73071289 C42.87398315 51.97026733 43.30094482 53.20982178 43.74084473 54.48693848 C47.34894422 64.95670589 50.99178325 75.41397087 54.65795898 85.86352539 C54.93267029 86.64674164 55.20738159 87.42995789 55.49041748 88.23690796 C56.59868796 91.39662235 57.70697556 94.55633069 58.81558228 97.71592712 C62.67552352 108.7210136 66.51065517 119.73478099 70.34753418 130.7479248 C70.95014411 132.47759822 71.55306337 134.20716389 72.15631104 135.93661499 C72.73551157 137.59943226 73.31297772 139.26285479 73.88861084 140.9269104 C75.27084623 144.91225076 76.68551139 148.87926029 78.17749023 152.82495117 C78.45834473 153.58054825 78.73919922 154.33614532 79.02856445 155.11463928 C79.550579 156.51428688 80.08370588 157.90987274 80.63110352 159.29978943 C82.42249824 164.14459646 83.22739128 168.95910469 82.40795898 174.11352539 C79.87827424 177.39527857 78.33064567 178.80596316 74.40795898 180.11352539 C72.99971006 180.19374538 71.58798668 180.22118516 70.17749023 180.21118164 C69.37504883 180.20795898 68.57260742 180.20473633 67.74584961 180.20141602 C66.9124707 180.19303711 66.0790918 180.1846582 65.22045898 180.17602539 C63.95298828 180.16925781 63.95298828 180.16925781 62.65991211 180.16235352 C60.57589744 180.15057942 58.49191922 180.13264429 56.40795898 180.11352539 C49.37419756 159.11724675 42.37679875 138.11007524 35.53295898 117.05102539 C35.11255341 115.75834244 35.11255341 115.75834244 34.68365479 114.43954468 C31.87246748 105.795239 29.06606232 97.14939651 26.26831055 88.50073242 C24.42809839 82.81219411 22.58352392 77.12508487 20.73651123 71.43875122 C20.02111618 69.23315562 19.30743429 67.02700356 18.59552002 64.82028198 C17.60489848 61.74998629 16.60862542 58.68157855 15.61108398 55.61352539 C15.16830612 54.2339138 15.16830612 54.2339138 14.71658325 52.82643127 C14.44103607 51.98273483 14.16548889 51.13903839 13.8815918 50.26977539 C13.64402161 49.5356543 13.40645142 48.8015332 13.16168213 48.04516602 C12.38121285 45.84124873 12.38121285 45.84124873 10.40795898 43.11352539 C3.00018206 65.23505796 -4.38160956 87.36426345 -11.59204102 109.55102539 C-11.87215027 110.41233063 -12.15225952 111.27363586 -12.44085693 112.16104126 C-15.52970376 121.66006964 -18.60864141 131.16226389 -21.67834473 140.66749573 C-23.06103382 144.94601558 -24.44734088 149.22335832 -25.83422852 153.5005188 C-26.50199472 155.56316496 -27.1680325 157.62637154 -27.83227539 159.69015503 C-28.75324282 162.55139465 -29.67983166 165.41075651 -30.60766602 168.26977539 C-30.88096741 169.1238649 -31.1542688 169.97795441 -31.43585205 170.85792542 C-31.8191568 172.03342201 -31.8191568 172.03342201 -32.21020508 173.23266602 C-32.43001038 173.91349243 -32.64981567 174.59431885 -32.87628174 175.29577637 C-33.59204102 177.11352539 -33.59204102 177.11352539 -35.59204102 180.11352539 C-38.43125984 180.41901096 -41.00597326 180.53142389 -43.84204102 180.48852539 C-44.59356445 180.50012695 -45.34508789 180.51172852 -46.11938477 180.52368164 C-50.98727225 180.49819532 -54.3963304 179.82166588 -58.59204102 177.11352539 C-61.27723339 173.08573683 -61.14823572 169.76950203 -60.59204102 165.11352539 C-59.49154416 160.74401968 -58.00620602 156.53798836 -56.49047852 152.29711914 C-55.84844986 150.44852043 -55.84844986 150.44852043 -55.19345093 148.56257629 C-54.03969534 145.24131636 -52.86909656 141.9262307 -51.69511414 138.61207581 C-50.46992623 135.14377851 -49.26080438 131.66988905 -48.05004883 128.1965332 C-45.89222716 122.01320197 -43.72184478 115.83438262 -41.54470062 109.65783119 C-39.57900173 104.08017525 -37.62589296 98.49819379 -35.67797852 92.91430664 C-33.75814353 87.41387238 -31.83433219 81.91487956 -29.90351868 76.41828918 C-24.67709958 61.53749242 -19.52115682 46.63219576 -14.36254883 31.7277832 C-12.44439348 26.18783105 -10.52169241 20.64948417 -8.59204102 15.11352539 C-8.32450012 14.34576782 -8.05695923 13.57801025 -7.78131104 12.7869873 C-7.07729887 10.77214377 -6.36901665 8.75887668 -5.65844727 6.74633789 C-5.08719116 5.12429443 -5.08719116 5.12429443 -4.50439453 3.46948242 C-3.21535912 0.14082528 -3.21535912 0.14082528 0 0 Z " fill="#11344C" transform="translate(1043.592041015625,30.886474609375)"/>
<path d="M0 0 C1.48465256 -0.0129007 1.48465256 -0.0129007 2.9992981 -0.02606201 C4.62641724 -0.03245193 4.62641724 -0.03245193 6.28640747 -0.03897095 C7.42973541 -0.04714844 8.57306335 -0.05532593 9.7510376 -0.06375122 C13.54163079 -0.08860289 17.33218661 -0.1051186 21.12283325 -0.11953735 C22.41568363 -0.12486103 23.70853401 -0.13018471 25.04056168 -0.13566971 C30.47248421 -0.15689584 35.90439457 -0.17602671 41.33634758 -0.1872921 C49.11718185 -0.2035364 56.89751721 -0.23673498 64.67816341 -0.29369295 C70.81149232 -0.3370599 76.94462544 -0.35303659 83.0780983 -0.35942459 C85.68645916 -0.36615406 88.29481227 -0.38141969 90.90307236 -0.4053154 C94.54946898 -0.43682247 98.19459879 -0.4370249 101.84109497 -0.42959595 C102.9217926 -0.44600128 104.00249023 -0.46240662 105.11593628 -0.47930908 C112.43684891 -0.41812927 112.43684891 -0.41812927 116.36221313 2.55084229 C118.23646227 5.21548374 118.83272681 6.41907796 118.85720825 9.62265015 C118.86365356 10.44120483 118.87009888 11.25975952 118.8767395 12.1031189 C118.85740356 12.94487671 118.83806763 13.78663452 118.81814575 14.65390015 C118.83748169 15.49565796 118.85681763 16.33741577 118.8767395 17.2046814 C118.86707153 18.43251343 118.86707153 18.43251343 118.85720825 19.68515015 C118.8515686 20.42313843 118.84592896 21.16112671 118.84011841 21.92147827 C117.79992147 25.51074652 116.14910149 26.87791155 113.19314575 29.15390015 C109.74262459 29.84394731 106.36797564 29.73659795 102.8611145 29.6421814 C101.86936722 29.63510666 100.87761993 29.62803192 99.8558197 29.6207428 C96.69665234 29.59281448 93.53927494 29.53007734 90.38064575 29.46640015 C88.23548911 29.44131533 86.0903046 29.41850248 83.94509888 29.39804077 C78.69383991 29.34299341 73.44362072 29.25938324 68.19314575 29.15390015 C68.19591113 29.90873342 68.19867651 30.66356668 68.20152569 31.44127369 C68.26772893 49.79340029 68.31739872 68.14550312 68.34858227 86.49772358 C68.36406255 95.3726613 68.38517419 104.24751939 68.41946411 113.12240601 C68.44933099 120.85620128 68.4687123 128.58993891 68.47541124 136.32379025 C68.47932812 140.42023585 68.48855726 144.5165165 68.51033592 148.61290932 C68.53065836 152.46652279 68.53698823 156.31990294 68.5324688 160.17356491 C68.53329591 161.58975555 68.53928693 163.00595377 68.55076218 164.42209816 C68.56563805 166.35215777 68.56032325 168.28234184 68.5539093 170.21244812 C68.55667468 171.29371129 68.55944006 172.37497446 68.56228924 173.48900318 C68.19314575 176.15390015 68.19314575 176.15390015 66.85809803 177.9627409 C62.90696497 180.78950582 58.46238187 180.37252017 53.81814575 180.40390015 C52.68505981 180.43483765 52.68505981 180.43483765 51.52908325 180.46640015 C46.88912615 180.4988474 44.01202692 180.0733537 40.19314575 177.15390015 C39.19314575 176.15390015 39.19314575 176.15390015 39.07009792 173.73509884 C39.07101972 172.65199208 39.07194151 171.56888533 39.07289124 170.45295715 C39.07151657 169.21470184 39.07014191 167.97644653 39.06872559 166.70066833 C39.07226519 165.3158567 39.07590001 163.9310453 39.07962036 162.54623413 C39.07990223 161.0978292 39.07974451 159.64942413 39.07917786 158.20101929 C39.07888986 154.25697701 39.08478695 150.31296487 39.09175181 146.36892962 C39.09798497 142.25160546 39.09858912 138.13428067 39.09977722 134.01695251 C39.10289065 126.21484152 39.11110419 118.41274447 39.12112671 110.61063963 C39.13228749 101.73049711 39.13779821 92.85035393 39.14282215 83.97020614 C39.1532868 65.69809623 39.17088646 47.42599931 39.19314575 29.15390015 C38.64048538 29.1650032 38.08782501 29.17610626 37.51841736 29.18754578 C31.7596861 29.29827283 26.00125779 29.37362199 20.24172974 29.42855835 C18.09316726 29.453683 15.9446901 29.48778875 13.79641724 29.53109741 C10.70578963 29.59183807 7.61629312 29.62013058 4.525177 29.6421814 C3.56666336 29.66798782 2.60814972 29.69379425 1.62059021 29.72038269 C-3.04749696 29.72234029 -5.11169947 29.68858286 -8.91415405 26.76390076 C-10.87477452 24.06023927 -11.43182167 22.92746848 -11.40060425 19.6499939 C-11.39802612 18.82692749 -11.395448 18.00386108 -11.39279175 17.15585327 C-11.36443237 16.30958374 -11.336073 15.46331421 -11.30685425 14.59140015 C-11.30943237 13.74126343 -11.3120105 12.89112671 -11.31466675 12.01522827 C-11.25803631 8.40503763 -11.17479317 5.84592481 -9.46310425 2.6265564 C-6.55036631 0.03669271 -3.72031004 0.02407988 0 0 Z " fill="#12344C" transform="translate(568.8068542480469,30.846099853515625)"/>
<path d="M0 0 C3 1 3 1 4.16905212 3.17893982 C4.54115311 4.14139114 4.91325409 5.10384247 5.29663086 6.09545898 C5.72395004 7.18426865 6.15126923 8.27307831 6.59153748 9.3948822 C7.04472855 10.58328201 7.49791962 11.77168182 7.96484375 12.99609375 C8.67671593 14.822864 8.67671593 14.822864 9.40296936 16.6865387 C10.66902856 19.93564477 11.92152128 23.18981753 13.17120361 26.44525146 C14.43121577 29.72108236 15.70323304 32.99223856 16.97460938 36.26367188 C19.26369191 42.15673632 21.54561454 48.05249229 23.80496216 53.95703125 C24.58560094 55.94480045 25.39705497 57.92081571 26.24264526 59.88183594 C26.61930328 60.75864014 26.9959613 61.63544434 27.3840332 62.53881836 C27.89012871 63.67292397 27.89012871 63.67292397 28.40644836 64.8299408 C29.53233432 68.94624514 27.70598121 72.27950907 26 76 C25.46257591 77.45156556 24.93648837 78.90737918 24.421875 80.3671875 C23.8659865 81.87031133 23.30864008 83.37289663 22.75 84.875 C22.12497359 86.56379231 21.4999743 88.25259466 20.875 89.94140625 C20.56046875 90.78977051 20.2459375 91.63813477 19.921875 92.51220703 C18.52668759 96.2772917 17.13800478 100.04476267 15.75 103.8125 C15.33717773 104.93241333 15.33717773 104.93241333 14.91601562 106.07495117 C13.01191665 111.24344499 11.11407332 116.41421995 9.21875 121.5859375 C8.9747345 122.25173325 8.73071899 122.91752899 8.47930908 123.60350037 C7.25883719 126.9338146 6.03879146 130.26428418 4.81933594 133.5949707 C2.56861355 139.73860623 0.31003671 145.87840271 -2 152 C-2.66 152 -3.32 152 -4 152 C-4.22248917 151.4135672 -4.44497833 150.8271344 -4.67420959 150.22293091 C-7.02630285 144.02377147 -9.37944653 137.82501146 -11.7331543 131.62646484 C-12.60711233 129.32448025 -13.48081767 127.0223997 -14.35424805 124.72021484 C-15.20269142 122.48398486 -16.05167693 120.24796049 -16.9012146 118.012146 C-17.73949536 115.80359432 -18.57545975 113.59416203 -19.40908813 111.3838501 C-21.27685958 106.44697043 -23.17239313 101.53308458 -25.21826172 96.66699219 C-25.55256699 95.85849823 -25.88687225 95.05000427 -26.23130798 94.2170105 C-26.83877207 92.75792477 -27.46174678 91.30513445 -28.10475159 89.86135864 C-31.85796521 80.77515125 -28.50889544 72.78106866 -25.09765625 64.0625 C-24.70382751 63.03152191 -24.30999878 62.00054382 -23.90423584 60.93832397 C-22.63402814 57.62145568 -21.34866661 54.31070866 -20.0625 51 C-19.19089911 48.73417557 -18.3200501 46.46806177 -17.44995117 44.20166016 C-11.76255313 29.41750937 -6.0164314 14.65388242 0 0 Z " fill="#071D29" transform="translate(144,0)"/>
<path d="M0 0 C3.21383289 4.82074933 5.22998614 10.21395115 7.44262695 15.54931641 C8.02007025 16.92720665 8.60888115 18.30039076 9.20922852 19.66845703 C14.8354804 32.50765371 14.8354804 32.50765371 13.05859375 37.90625 C12.40258491 39.28560045 11.71637307 40.65101339 11 42 C10.45410458 43.44840099 9.92824041 44.90449775 9.421875 46.3671875 C8.8659865 47.87031133 8.30864008 49.37289663 7.75 50.875 C7.12497359 52.56379231 6.4999743 54.25259466 5.875 55.94140625 C5.40320313 57.21395264 5.40320313 57.21395264 4.921875 58.51220703 C3.52668759 62.2772917 2.13800478 66.04476267 0.75 69.8125 C0.33717773 70.93241333 0.33717773 70.93241333 -0.08398438 72.07495117 C-1.98808335 77.24344499 -3.88592668 82.41421995 -5.78125 87.5859375 C-6.14727325 88.58463112 -6.14727325 88.58463112 -6.52069092 89.60350037 C-7.74116281 92.9338146 -8.96120854 96.26428418 -10.18066406 99.5949707 C-12.43138645 105.73860623 -14.68996329 111.87840271 -17 118 C-17.66 118 -18.32 118 -19 118 C-20.80283186 113.64057102 -22.56461668 109.2674134 -24.29174805 104.87744141 C-24.88351733 103.38938925 -25.4858912 101.90550572 -26.09936523 100.42626953 C-31.83924631 86.55138178 -31.83924631 86.55138178 -30.05078125 80.5 C-29.40276512 78.98429043 -28.72016062 77.48279098 -28 76 C-27.48333101 74.53441607 -26.98285627 73.06300653 -26.5 71.5859375 C-26.00245819 70.18141844 -25.50248104 68.77775958 -25 67.375 C-24.7525 66.67632812 -24.505 65.97765625 -24.25 65.2578125 C-22.83210461 61.26998172 -21.36306383 57.30400746 -19.87457275 53.34188843 C-18.16320107 48.75926048 -16.4869058 44.16370291 -14.8046875 39.5703125 C-13.99875076 37.37237646 -13.19275961 35.17446036 -12.38671875 32.9765625 C-11.12429248 29.53340223 -9.86222332 26.09011267 -8.60107422 22.64648438 C-7.3783328 19.30820621 -6.15413386 15.97046562 -4.9296875 12.6328125 C-4.55053192 11.59641632 -4.17137634 10.56002014 -3.7807312 9.49221802 C-3.43011627 8.53717377 -3.07950134 7.58212952 -2.71826172 6.59814453 C-2.40976288 5.75623566 -2.10126404 4.91432678 -1.78341675 4.04690552 C-1 2 -1 2 0 0 Z " fill="#0C2C3E" transform="translate(159,34)"/>
</svg>
