<svg xmlns="http://www.w3.org/2000/svg" width="189.619" height="27.084" viewBox="0 0 189.619 27.084">
  <g id="logo-white-horizontal" transform="translate(-5.805 -7.118)">
    <path id="Path_1" data-name="Path 1" d="M45.769-27.988c1.106.2,1.9,1.62,1.481,3.481s-2.349,2.982-3.141,3.963.778,3.365,1.416,3.794,1.746.608,1.807,1.168-.825,1.073-1.562,1.073c-1.139,0-2.512-1.069-3.534-3.079a14.847,14.847,0,0,1-1.047-4.423,6.956,6.956,0,0,1,.86-3.457,4.4,4.4,0,0,1,.882-1.46A3.221,3.221,0,0,1,45.769-27.988Zm-1.435,5.061A3.991,3.991,0,0,0,45.6-25.371a.722.722,0,0,0-1.263-.451,2.7,2.7,0,0,0-.989,1.315,2.435,2.435,0,0,0-.175,1.787C43.36-22.4,43.684-22.364,44.333-22.927Z" transform="translate(-14.086 45.117)"/>
    <path id="Path_7" data-name="Path 7" d="M19.028-34.162v4.187a18.667,18.667,0,0,1-2.483,10.211,2.583,2.583,0,0,1-1.13,1.434,3.453,3.453,0,0,1-2.016.509c-2.448-1.222-2.518-4.84-4.548-9.536L6.991-19.328q-1.068,2.035-2.035,2.035H4.73q-1.671,0-3.191-8.933A56.358,56.358,0,0,1-.2-32.03q.653-1.282,1.508-1.282h.377q1.307,0,2.563,5.428l.678,3.958c.142-.168.57-.935,1.282-4.361q1.206-2.488,2.035-2.488l.528-.075c1.533,0,3,4.164,4.7,9.562,0,0,.693,1.388,1.327-.878a73.337,73.337,0,0,0,1.565-8.27c.493-3.239-.258-3.756.407-4.688S18.894-35.669,19.028-34.162Z" transform="translate(6 48.514)"/>
    <path id="Path_2" data-name="Path 2" d="M3.579-33.672h.082q1.217,0,1.559,1.641-.191,3.527-.191,5.2v.082a11.268,11.268,0,0,0,1.148,3.773v.41Q5.753-21.094,4.7-21.094q-2.953-.984-2.953-5.086v-1.312a6.339,6.339,0,0,1,.273-4.539Q2.8-33.672,3.579-33.672Zm8.5-9.3h.41q1.559,0,1.559,3.609,0,5.25.656,5.25l1.641-.328h.082a1.554,1.554,0,0,1,1.723,1.312v.164q0,1.3-3.363,2.707l-.082.82q0,10.582-.738,10.582l-.82.246q-1.559,0-1.559-2.3l-.328-7.465H11.18a3.444,3.444,0,0,1-1.887.984H9.13a1.654,1.654,0,0,1-1.394-1.723q0-.861,3.2-3.281l.082-.082v-.082l-.492-8.613A1.65,1.65,0,0,1,12.083-42.969Zm9.091,1.34h.246a1.223,1.223,0,0,1,1.312.984l-.328,10.5a4.341,4.341,0,0,0,.41,2.3q3.281-3.076,6.118-2.6t5.079,7.718v.328q0,.971-1.559,1.312h-.328q-.574,0-2.912-5.2l-.41-.082q-4.129.848-5.5,2.9t-1.928,2.051h-.41q-2.3-.383-2.3-2.3l.533-6.015q0-10.992.574-10.992A1.566,1.566,0,0,1,21.174-41.629Zm16.037,7.41q1.394.232,1.394,1.394l-.328,3.855v.41a.556.556,0,0,0,.328.574h.082q.4,0,3.855-2.953a3.6,3.6,0,0,1,1.641-.574q1.353,0,2.215,5.168a9.42,9.42,0,0,0,2.133,2.953l.164.574v.328q0,1-1.641,1.394-2.037,0-3.937-4.348l-.246-1.066q-2.994,1.969-3.937,1.969h-.656q-3.2-.547-3.2-3.035v-.41q0-5.906.9-5.906A2.3,2.3,0,0,1,37.211-34.219ZM55.872-37.5q1.572,0,1.887,2.133a2.085,2.085,0,0,1-2.051,2.215,22.368,22.368,0,0,0-2.543,5.25L53-27.247A46.665,46.665,0,0,0,57.021-30.2a3.112,3.112,0,0,1,1.559-.41q2.379,0,3.281,5.332.4,1.394,1.477,1.394l2.379-.41q1.23.424,1.23,1.312v.492q0,1.477-2.789,1.887l-1.148.082q-3.117,0-4.348-3.609a10.176,10.176,0,0,1-.492-2.3H58q-4.867,3.281-6.152,3.281a2.787,2.787,0,0,1-2.3-3.035v-.246q0-3.842,4.348-10.007A3.557,3.557,0,0,1,55.872-37.5Zm13.781,7.219q2.215,0,2.215,3.445v.82l.082.082a7.047,7.047,0,0,1,3.363-1.559,3.735,3.735,0,0,1,3.363,2.3L80.4-23.555a1.449,1.449,0,0,1,.328.9v.164q0,1.066-1.8,1.312-2.146,0-3.445-2.625l-.082-.082h-.082a38.25,38.25,0,0,0-4.265,2.707l-.574.082h-.328q-1.477,0-1.477-3.117-.4-3.363-.9-3.363a2.49,2.49,0,0,1-.328-1.23Q67.753-30.282,69.653-30.282Zm14.328-3.391h.082q1.217,0,1.559,1.641-.191,3.527-.191,5.2v.082a11.268,11.268,0,0,0,1.148,3.773v.41q-.424,1.477-1.477,1.477-2.953-.984-2.953-5.086v-1.312a6.339,6.339,0,0,1,.273-4.539Q83.2-33.672,83.981-33.672ZM94.453-37.5q1.572,0,1.887,2.133a2.085,2.085,0,0,1-2.051,2.215,22.368,22.368,0,0,0-2.543,5.25l-.164.656A46.664,46.664,0,0,0,95.6-30.2a3.112,3.112,0,0,1,1.559-.41q2.379,0,3.281,5.332.4,1.394,1.477,1.394l2.379-.41q1.23.424,1.23,1.312v.492q0,1.477-2.789,1.887l-1.148.082q-3.117,0-4.348-3.609a10.175,10.175,0,0,1-.492-2.3h-.164q-4.867,3.281-6.152,3.281a2.787,2.787,0,0,1-2.3-3.035v-.246q0-3.842,4.348-10.007A3.557,3.557,0,0,1,94.453-37.5Z" transform="translate(89.897 52.808)"/>
    <path id="Path_3" data-name="Path 3" d="M8.391-47.314H8.54q.945,0,1.268,1.715l-.82,2.535A42.834,42.834,0,0,0,7.894-30.312v2.237a5.842,5.842,0,0,0,.82,2.759l.149.447v.373q-.51,1.268-1.342,1.268-1.268,0-2.237-1.939a12.326,12.326,0,0,1-.447-3.878q-.4-13.709,2.511-17.748A1.446,1.446,0,0,1,8.391-47.314Z" transform="translate(74 54.433)"/>
    <path id="Path_5" data-name="Path 5" d="M4.539,0C4.79,5.872,2.36.129,2.625,4.537v2.3a5.842,5.842,0,0,0,.82,2.759l.149.447v.373c-.34.845-.787.759-1.342.759-.845,0-1.082-.137-1.728-1.43A12.326,12.326,0,0,1,.077,5.864a16.629,16.629,0,0,1,0-3.049C.559.2,2.383.3,2.383.3Z" transform="translate(78.924 31.341) rotate(-90)"/>
    <path id="Path_4" data-name="Path 4" d="M10.475-46.314h.149c.63,0,1.044.328.964,1.4s-.67,2.685-1.286,2.386-1.927-.253-.871-3.267A1.445,1.445,0,0,1,10.475-46.314Z" transform="translate(83.625 59.542)"/>
    <path id="Path_6" data-name="Path 6" d="M10.475-46.314h.149c.63,0,1.044.328.964,1.4s-.67,2.685-1.286,2.386-1.927-.253-.871-3.267A1.445,1.445,0,0,1,10.475-46.314Z" transform="translate(164.568 59.542)"/>
    <path id="Path_941" data-name="Path 941" d="M93.694,110.283a.935.935,0,0,0-.118-.428,4.664,4.664,0,0,0-1.067-1.633,5.58,5.58,0,0,0-.722-.577c-.045-.031-.131-.052-.1-.125s.1-.034.163-.023a1.439,1.439,0,0,1,.735.391,9.955,9.955,0,0,1,1.329,1.551c.035.05.058.146.129.127s.058-.117.064-.184c.047-.62.088-1.241.14-1.86.014-.167.019-.335.041-.516a.579.579,0,0,1,.354-.12,6.8,6.8,0,0,1,1.4-.081.271.271,0,0,1,.167.045.362.362,0,0,1,.045.191c.045.074.095.058.154.018a.8.8,0,0,0,.072-.068,3.03,3.03,0,0,1,.71-.744.956.956,0,0,0,.2-.2c.074-.08.089-.2.224-.221a.944.944,0,0,1,.366.207,3.079,3.079,0,0,1-.371.392c-.155.158-.319.308-.468.487a.372.372,0,0,1-.1.132,2.547,2.547,0,0,0-.669,1.317,1.15,1.15,0,0,0,0,.243c.017.242.034.485.053.742a.506.506,0,0,1,.059.37c-.009.2-.02.395-.04.607a.888.888,0,0,1-.1.289,2.584,2.584,0,0,1-.564.76,1.76,1.76,0,0,1-.391.278.673.673,0,0,1-.607-.027,2.533,2.533,0,0,1-.88-.79,2.084,2.084,0,0,1-.141-.374C93.735,110.407,93.72,110.349,93.694,110.283Z" transform="translate(-41.504 -78.581)" fill="#e21d25"/>
    <path id="Path_942" data-name="Path 942" d="M69.742,82.271a5.954,5.954,0,0,0-.787-.293,16.666,16.666,0,0,0-2.313-.616,6.47,6.47,0,0,0-.72-.1,2.7,2.7,0,0,0-1.624.4.646.646,0,0,0-.283.22.509.509,0,0,1-.089.08.083.083,0,0,1-.132-.014.527.527,0,0,1,.054-.228.6.6,0,0,0,.111-.129,1.654,1.654,0,0,1,1.194-.6,6.915,6.915,0,0,1,2.106.182c.564.123,1.125.261,1.689.387a4.6,4.6,0,0,0,.767.118c.03,0,.063.015.1-.022a.674.674,0,0,0-.206-.114,7.531,7.531,0,0,1-.906-.505,5.617,5.617,0,0,1-1.286-1.156c-.031-.038-.063-.074-.1-.118a.466.466,0,0,1-.192-.253c-.115-.2-.228-.383-.344-.58a.774.774,0,0,1,.454-.218c.158.16.3.326.449.48a5.7,5.7,0,0,0,1.225.931c.52.3,1.048.588,1.583.884a.383.383,0,0,1,.212.115,3.57,3.57,0,0,1,.885.694c.02.022.039.054.09.042a.907.907,0,0,0,.016-.2.208.208,0,0,1,.173-.094c.478-.05.957-.1,1.435-.149a.21.21,0,0,1,.139.024,1.92,1.92,0,0,1,.061.227c.053.07.086.028.129-.014a1.4,1.4,0,0,0,.151-.24c.191,0,.372-.082.566,0a5.039,5.039,0,0,1-.334.721.34.34,0,0,1-.224.06h-.534c-1.085,0-2.168.022-3.249.124A.42.42,0,0,1,69.742,82.271Z" transform="translate(-18.815 -56.515)" fill="#c58c2d"/>
    <path id="Path_943" data-name="Path 943" d="M46.228,20.742c.109,0,.208,0,.32,0a.175.175,0,0,1,.069,0,3.646,3.646,0,0,1,.527.136,2.537,2.537,0,0,1,1.378,1.682c.03.129.01.151-.127.142a7.541,7.541,0,0,1-2.6-.637c-.034-.015-.07-.028-.118-.044-.053.04-.076-.017-.119-.023s-.045-.023-.073-.035-.042-.03-.069-.045l-.023-.013c-.015-.009-.019-.01,0,0,.036.02.06.041.095.063s.044.025.072.036.058.051.085.086a3.9,3.9,0,0,0,.641.33,9.055,9.055,0,0,0,1.835.585c.067.014.166.007.182.079.019.089-.086.113-.147.149a2.616,2.616,0,0,1-1.453.391,1.911,1.911,0,0,1-1.417-.688c-.218-.248-.4-.527-.607-.8a.869.869,0,0,1-.222-.3c-.005-.01-.007-.007-.006-.008a.3.3,0,0,1-.093-.122l-.268-.349c-.06-.079-.05-.125.045-.149.192-.049.386-.09.591-.14a.456.456,0,0,1,.1-.027.372.372,0,0,0,.1-.016c.025-.025.05-.023.083-.029.011,0,.019,0,.022,0s.01-.016.024-.019a.314.314,0,0,0,.1-.013,5.135,5.135,0,0,0,.511-.127c.137-.031.272-.07.425-.092A.259.259,0,0,1,46.228,20.742Z" transform="translate(-2.759 -9.364)" fill="#fcc808"/>
    <path id="Path_944" data-name="Path 944" d="M128.285,18.366c-.029.149-.038.156-.169.127a7.408,7.408,0,0,1-2.334-.946c-.046-.029-.092-.058-.138-.084-.028-.016-.062-.034-.085,0s0,.063.029.083c.076.06.151.123.232.177a9.653,9.653,0,0,0,2,1.03c.062.023.162.021.164.106s-.105.093-.169.121a2.652,2.652,0,0,1-1.383.19,1.979,1.979,0,0,1-1.374-.865,3.052,3.052,0,0,1-.28-.475c-.12-.242-.239-.485-.359-.728a.253.253,0,0,0-.087-.126,2.772,2.772,0,0,0-.207-.388c-.115-.185-.09-.221.126-.237.328-.023.655-.056,1-.085a3.933,3.933,0,0,1,1.368-.018A1.683,1.683,0,0,1,127.76,17a6.2,6.2,0,0,1,.321.607,3.357,3.357,0,0,1,.16.5.156.156,0,0,1,.052.084A.433.433,0,0,1,128.285,18.366Z" transform="translate(-67.84 -5.667)" fill="#fcc808"/>
    <path id="Path_945" data-name="Path 945" d="M71.551,11.725a1.514,1.514,0,0,0,.057-.385.207.207,0,0,1,.008-.1c.012-.075.019-.141.025-.221a.2.2,0,0,1,.008-.1,4.054,4.054,0,0,0,.024-.546.874.874,0,0,0-.037-.3.844.844,0,0,1-.016-.17c.006-.075-.035-.136-.01-.2-.025.054.005.107.005.172a1.539,1.539,0,0,1,0,.176.168.168,0,0,1-.035.1,9.513,9.513,0,0,1-.239,1.528,7.868,7.868,0,0,1-.42,1.205c-.009.019-.021.036-.04.069a1.165,1.165,0,0,1-.371-.3,2.7,2.7,0,0,1-.61-1.336.281.281,0,0,1-.02-.133c0-.067.005-.122,0-.191a.2.2,0,0,1,.008-.1.965.965,0,0,0,.019-.126.174.174,0,0,1,.012-.068,2.609,2.609,0,0,1,.6-1.08c.216-.243.43-.487.646-.741.1-.132.191-.255.289-.376a1,1,0,0,1,.113-.115c.072-.064.1-.061.144.025a3.389,3.389,0,0,1,.218.464.656.656,0,0,0,.036.066c.012.008.02.006.017.009a.451.451,0,0,0,.091.239,9.4,9.4,0,0,1,.532,1.162,1.792,1.792,0,0,1-.2,1.654,2.848,2.848,0,0,1-.946.916.322.322,0,0,1-.056.032c-.059.021-.1-.007-.091-.069s.027-.115.04-.173a5.686,5.686,0,0,0,.155-.708.172.172,0,0,1,.011-.068.928.928,0,0,0,.023-.127A.159.159,0,0,1,71.551,11.725Z" transform="translate(-23.768 0.734)" fill="#fcc808"/>
    <path id="Path_946" data-name="Path 946" d="M89.244,22.763a2.482,2.482,0,0,1,.551-1.189c.36-.433.73-.857,1.1-1.285a.342.342,0,0,0,.088-.127c.081-.1.16-.184.239-.271.045-.05.084-.039.115.015.016.028.028.058.042.087l.843,1.682a3.64,3.64,0,0,1,.259.806.17.17,0,0,1,.031.133,3.864,3.864,0,0,1-.041.783.168.168,0,0,1-.11.053,6.6,6.6,0,0,1-1.1-.1,1.854,1.854,0,0,1-.005-.224.17.17,0,0,1,.01-.069c.012-.077.019-.143.025-.223a.512.512,0,0,1,.009-.166,5.515,5.515,0,0,0,.007-.809.269.269,0,0,1-.018-.069c0-.088-.006-.166-.014-.256-.019-.036-.034-.056-.067-.022-.012.212-.016.416-.026.62a7.915,7.915,0,0,1-.2,1.4.338.338,0,0,1-.222.06,6.9,6.9,0,0,0-1.208.079.27.27,0,0,1-.2-.026.967.967,0,0,1-.057-.129.246.246,0,0,1-.024-.064c0-.046,0-.081-.011-.129a.24.24,0,0,1-.019-.067c0-.142,0-.273,0-.418A.156.156,0,0,1,89.244,22.763Z" transform="translate(-39.511 -8.646)" fill="#fdc908"/>
    <path id="Path_947" data-name="Path 947" d="M151.246,17.631a5.751,5.751,0,0,0-.932.816,7.53,7.53,0,0,0-.568.667c-.031.041-.052.1-.125.109a.7.7,0,0,1-.07-.341,1.94,1.94,0,0,1,1.683-2.136c.287-.054.575-.1.865-.131a.081.081,0,0,0,.074-.045,3.171,3.171,0,0,0,.494-.091c.147-.02.184.009.15.16s-.074.274-.111.41c-.011.041-.021.083-.032.137-.061.259-.122.505-.181.752a2.751,2.751,0,0,1-.387.956,1.653,1.653,0,0,1-.834.617,2.377,2.377,0,0,1-1.248.087l-.063-.015c-.116-.031-.127-.051-.067-.154a6.886,6.886,0,0,1,.645-.935,8.307,8.307,0,0,1,.758-.794.994.994,0,0,1,.3-.291c.061-.033.1-.076.155-.112-.049.012-.072.047-.112.078A2.1,2.1,0,0,1,151.246,17.631Z" transform="translate(-88.577 -5.893)" fill="#fcc808"/>
    <path id="Path_948" data-name="Path 948" d="M158.471,66.645a2.127,2.127,0,0,1-1.861-.662c-.107-.105-.1-.136.03-.2a6.122,6.122,0,0,1,1.732-.52,4.957,4.957,0,0,1,.88-.063c-.018-.068-.066-.059-.1-.062a5.249,5.249,0,0,0-.956.014,7.248,7.248,0,0,0-1.536.324.232.232,0,0,1-.079.015.056.056,0,0,1-.058-.076.286.286,0,0,1,.032-.074,2.048,2.048,0,0,1,1.352-1.055,1.84,1.84,0,0,1,1.095.131c.22.09.431.2.646.3a.5.5,0,0,0,.1.028.166.166,0,0,1,.165.059,3.7,3.7,0,0,0,.425.21c.032.019.067.033.1.052s.044.062.007.091c-.182.141-.344.3-.525.448-.135.107-.246.242-.371.362a3.6,3.6,0,0,1-.535.435c-.117.076-.246.132-.38.2A.428.428,0,0,1,158.471,66.645Z" transform="translate(-94.244 -44.76)" fill="#a4cb38"/>
    <path id="Path_949" data-name="Path 949" d="M40.589,55.7a.3.3,0,0,0,.185-.031c.385-.105.762-.238,1.153-.324a1.607,1.607,0,0,1,1.744.675,1.741,1.741,0,0,1,.268.515c.013.04.036.086,0,.123s-.083,0-.118-.014a8.324,8.324,0,0,0-.886-.357,6.939,6.939,0,0,0-1.18-.272c-.054.016-.1-.008-.14.009a.178.178,0,0,1,.118.037,7.938,7.938,0,0,1,1.19.392,5.458,5.458,0,0,1,.894.489c.089.061.094.089.019.145a1.945,1.945,0,0,1-1.67.41,1.59,1.59,0,0,1-.772-.483c-.045-.046-.09-.093-.144-.145-.009,0-.012-.005-.013-.005-.03.006-.031-.018-.042-.044,0-.009-.007-.006-.005-.007a.318.318,0,0,1-.094-.12l-.006-.008a.575.575,0,0,1-.156-.189.063.063,0,0,0-.026-.038.319.319,0,0,1-.1-.1c0-.01-.012,0-.007,0-.05-.019-.068-.066-.1-.118-.089-.1-.149-.208-.241-.291a.192.192,0,0,1-.033-.054c-.05-.093-.043-.116.051-.159A.773.773,0,0,1,40.589,55.7Z" transform="translate(0.211 -37.474)" fill="#a4cb38"/>
    <path id="Path_950" data-name="Path 950" d="M50.068,72.181a2.534,2.534,0,0,0,.16-.469.3.3,0,0,1,.207-.064q.608,0,1.216,0a.291.291,0,0,1,.183.049,5.613,5.613,0,0,1-.6.472c-.11.085-.223.168-.345.26.06.037.094.006.129-.01a4.807,4.807,0,0,0,.962-.63A9.851,9.851,0,0,0,53.336,70.5c.036-.042.064-.118.136-.094s.057.1.06.156a2.95,2.95,0,0,1-.135.992,1.956,1.956,0,0,1-1.424,1.382,5.146,5.146,0,0,1-.992.157.974.974,0,0,0-.236.038c-.238.039-.466.059-.692.086s-.281.055-.2-.226C49.923,72.728,49.993,72.46,50.068,72.181Z" transform="translate(-7.446 -49.765)" fill="#afba34"/>
    <path id="Path_951" data-name="Path 951" d="M151.149,81.215a1.2,1.2,0,0,0,.249.2c.2.145.383.288.569.433.021.016.038.038.058.056.049.044.041.079-.012.115-.106.073-.22.133-.332.2-.309.173-.619.345-.932.511a1.369,1.369,0,0,1-.383.108,1.158,1.158,0,0,1-.168.04c-.019.006-.024.01-.037.007a.134.134,0,0,0-.03-.02c-.117-.033-.226-.06-.334-.092a1.762,1.762,0,0,1-1.02-.8c-.066-.107-.044-.145.089-.168a6.512,6.512,0,0,1,1.562-.085.433.433,0,0,1,.119-.02,1.056,1.056,0,0,1,.139.021.285.285,0,0,0,.134.023c.06,0,.1.034.145.034.023.006.008.025.014,0-.045-.008-.086-.031-.142-.038a.4.4,0,0,1-.113-.012,1.166,1.166,0,0,0-.183-.041.143.143,0,0,1-.085-.04,2.876,2.876,0,0,0-.728-.1,6.22,6.22,0,0,0-.729,0c-.032,0-.065,0-.1,0s-.067,0-.082-.038a.082.082,0,0,1,.026-.088,1.629,1.629,0,0,1,.4-.347,1.681,1.681,0,0,1,.906-.257,1.657,1.657,0,0,1,.931.358A.081.081,0,0,1,151.149,81.215Z" transform="translate(-87.919 -58.239)" fill="#bca030"/>
    <path id="Path_952" data-name="Path 952" d="M38.459,35.539c.07-.058.134-.107.2-.159a1.292,1.292,0,0,1,1.15-.3,1.848,1.848,0,0,1,.9.458c.114.105.11.143-.028.208a6.178,6.178,0,0,1-.966.379c-.051.014-.151.01-.134.083s.111.038.167.027A7.489,7.489,0,0,0,40.638,36c.053-.017.122-.063.165-.009s-.012.112-.04.162c-.042.076-.092.147-.143.231-.057.065-.108.121-.161.175a1.53,1.53,0,0,1-1.031.488,1.6,1.6,0,0,1-.678-.139c-.1-.037-.191-.075-.3-.113-.028-.009-.044-.019-.069-.028a1.689,1.689,0,0,1-.3-.11c-.14-.065-.272-.121-.4-.184-.081-.04-.086-.069-.022-.131.176-.171.334-.358.5-.547a.967.967,0,0,1,.122-.093c.017-.016.027-.023.04-.038s.024-.036.042-.053,0-.006,0,0C38.388,35.567,38.427,35.564,38.459,35.539Z" transform="translate(2.474 -21.004)" fill="#d8c922"/>
    <path id="Path_953" data-name="Path 953" d="M113.573,23.9a.486.486,0,0,0,.057.177c.115.263.24.521.342.789a1.487,1.487,0,0,1-.787,1.89c-.041.021-.092.062-.134.028s-.008-.09.007-.134a6.56,6.56,0,0,0,.251-.939.452.452,0,0,0,.007-.177.059.059,0,0,0-.031-.032.037.037,0,0,0-.052.022.965.965,0,0,0-.039.124,4.921,4.921,0,0,1-.366.987c-.01.019-.018.039-.029.058-.057.1-.1.1-.171.018a2.072,2.072,0,0,1-.373-.605c-.014-.035-.026-.071-.045-.116a.837.837,0,0,1-.108-.513,1.677,1.677,0,0,1,.462-.945c.237-.26.488-.5.732-.757a.8.8,0,0,1,.07-.068c.068-.055.118-.044.149.035C113.536,23.789,113.548,23.842,113.573,23.9Z" transform="translate(-58.115 -11.747)" fill="#fbc808"/>
    <path id="Path_954" data-name="Path 954" d="M121.3,110.319a.152.152,0,0,1,.11.011,1.114,1.114,0,0,1,.472.508,1.465,1.465,0,0,1,.21.861,1.628,1.628,0,0,1-.28.743,3.471,3.471,0,0,1-.488.621c-.1.1-.179.216-.283.311-.076.069-.087.068-.138-.027s-.088-.173-.14-.267a1.114,1.114,0,0,0-.175-.354.209.209,0,0,1-.088-.133,1.519,1.519,0,0,0-.19-.326.193.193,0,0,1-.072-.1.269.269,0,0,0-.029-.062c-.082-.053-.085-.135-.105-.221a.313.313,0,0,0-.01-.065.121.121,0,0,1-.021-.069,1.293,1.293,0,0,1,.043-.472,1.074,1.074,0,0,1,.394-.633c.009-.008.011-.008.011-.009a.716.716,0,0,1,.414-.319c.068-.007.11,0,.1.075a.281.281,0,0,1-.008.048,6.037,6.037,0,0,0-.178.869,1,1,0,0,1,0,.488c-.009.182,0,.364-.008.509a3.659,3.659,0,0,1,.044-.785.337.337,0,0,1,.071-.19c.041-.132.074-.253.106-.388a.445.445,0,0,1,.09-.295.978.978,0,0,0,.109-.258A.09.09,0,0,1,121.3,110.319Z" transform="translate(-64.594 -82.228)" fill="#e01d24"/>
    <path id="Path_955" data-name="Path 955" d="M163.3,51.91a4.118,4.118,0,0,1,1.233-.592.469.469,0,0,0,.2-.084.247.247,0,0,0-.179,0,5.633,5.633,0,0,0-1.465.556c-.25.131-.488.278-.725.43-.032.02-.063.042-.1.06-.056.029-.082.006-.08-.053a.9.9,0,0,1,.035-.207,2.123,2.123,0,0,1,.753-1.144,1.657,1.657,0,0,1,1.256-.319c.311.038.618.1.941.15a5.742,5.742,0,0,1,.571.083c.109.027.134.075.072.164-.227.326-.421.672-.622,1.014a.618.618,0,0,1-.05.058.255.255,0,0,1-.2.062c-.5-.047-1.008-.071-1.51-.128A.236.236,0,0,1,163.3,51.91Z" transform="translate(-98.857 -33.604)" fill="#bbca2e"/>
    <path id="Path_957" data-name="Path 957" d="M86.967,11.549a1.908,1.908,0,0,0,.023-.195A.176.176,0,0,1,87,11.286c.023-.109.041-.208.059-.32a.135.135,0,0,1,.009-.074,3.4,3.4,0,0,1,.042-.374c.035-.1.03-.115.132-.06.146.078.29.162.433.246.162.1.323.192.481.294a1.3,1.3,0,0,1,.395.4.949.949,0,0,1,.156.447c.005.075.052.142.035.234a.169.169,0,0,1-.008.067.321.321,0,0,1-.022.1.117.117,0,0,0-.023.056,2.157,2.157,0,0,1-.143.437c-.015.028-.029.064-.064.065s-.056-.043-.067-.077a5.537,5.537,0,0,0-.261-.676c-.045-.091-.093-.182-.149-.279-.033-.034-.059-.044-.1-.011a6.006,6.006,0,0,1,.324,1.073c.027.143.021.155-.123.131a1.445,1.445,0,0,1-.994-.663,1.014,1.014,0,0,1-.14-.459A.659.659,0,0,1,86.967,11.549Z" transform="translate(-37.657 -0.971)" fill="#fac708"/>
    <path id="Path_958" data-name="Path 958" d="M127.761,107.333c.207.019.4.02.613.053a.179.179,0,0,1,.1.014.871.871,0,0,0,.125.02,1.766,1.766,0,0,1,.63.115c.069.024.125.048.195.067l.043.013a.616.616,0,0,0,.111.028.434.434,0,0,0,.334-.012.424.424,0,0,1,.349-.03,4.578,4.578,0,0,1,.437.487c.037.047.037.083-.036.1-.266.082-.529.174-.8.254a6.934,6.934,0,0,1-.745.186,1.992,1.992,0,0,0-.33.037.94.94,0,0,1-.522-.178,1.407,1.407,0,0,1-.694-.805c-.024-.086-.05-.16-.071-.235s0-.114.086-.125A.206.206,0,0,1,127.761,107.333Z" transform="translate(-70.641 -79.787)" fill="#e01d24"/>
    <path id="Path_959" data-name="Path 959" d="M171.675,32.745a3.364,3.364,0,0,0-.6-.37c-.065-.033-.171-.055-.161-.136s.118-.069.189-.087a2.1,2.1,0,0,1,.384-.036.127.127,0,0,1,.1-.01,1.031,1.031,0,0,1,.884.6,7.676,7.676,0,0,1,.358.874.436.436,0,0,1,.029.091c.011.083-.006.1-.095.105-.184,0-.367,0-.566,0-.128,0-.241-.012-.353-.019a1.13,1.13,0,0,1-1.123-1.1c-.035-.255-.019-.264.228-.174a5.994,5.994,0,0,1,.7.324c.09,0,.141.062.194.087A.5.5,0,0,1,171.675,32.745Z" transform="translate(-105.791 -18.603)" fill="#d7c922"/>
    <path id="Path_960" data-name="Path 960" d="M110.128,35.44c.142-.358.278-.711.444-1.052a2.893,2.893,0,0,1,1.184-1.3,3.31,3.31,0,0,1,.658-.272c.027-.008.055-.019.07.013s-.007.051-.035.062l-.121.048A2.514,2.514,0,0,0,111,34.058a2.63,2.63,0,0,0-.3.987,6.62,6.62,0,0,0-.01,1.265c.005.065.005.13.005.209a.535.535,0,0,1-.494.028,11.807,11.807,0,0,0-1.635-2.46c-.12-.152-.241-.3-.365-.468,0-.015.007-.02.024-.024s.037.014.062.022a.089.089,0,0,0,.039.023,3.018,3.018,0,0,0,.285.222,9.4,9.4,0,0,1,1.336,1.459c.026.034.053.069.088.109C110.071,35.446,110.093,35.461,110.128,35.44Z" transform="translate(-54.944 -19.179)" fill="#d3c521"/>
    <path id="Path_961" data-name="Path 961" d="M163.925,57.839c.347.014.682.051,1.018.073.272.017.542.054.829.06a1.564,1.564,0,0,1-.39.535.079.079,0,0,1-.034.042c-.009,0,0,0-.006,0,0,.016-.011.026-.035.034-.1.059-.194.118-.293.185-.008.015-.008.021-.016.022a3,3,0,0,1-.5.152,2.289,2.289,0,0,1-1.31-.208.585.585,0,0,1-.174-.117.065.065,0,0,1,0-.11c.021-.017.043-.033.065-.049C163.358,58.252,163.636,58.046,163.925,57.839Z" transform="translate(-99.505 -39.542)" fill="#a4cb38"/>
    <path id="Path_962" data-name="Path 962" d="M144.317,9.816a1.009,1.009,0,0,1-.06.794,1.308,1.308,0,0,1-.61.6.178.178,0,0,1-.047,0c.015-.2.119-.379.137-.586-.032-.173.054-.321.055-.491.025-.105.018-.2.032-.266,0,.048-.019.125-.024.215a1.3,1.3,0,0,1-.165.541c-.068.152-.126.3-.188.436-.071.16-.1.162-.212.024a.506.506,0,0,0-.051-.054c-.081-.023-.109-.085-.141-.14a1.116,1.116,0,0,1,.157-1.371c.055-.052.092-.121.174-.158.013,0,.017-.005.018-.008s-.014-.017-.011-.025.007-.012.021-.016a2.6,2.6,0,0,0,.315-.29.735.735,0,0,1,.16-.141c.131.128.145.318.248.474a2.523,2.523,0,0,1,.106.242.035.035,0,0,0,0,.014A.285.285,0,0,1,144.317,9.816Z" transform="translate(-83.151 0.28)" fill="#fac608"/>
    <path id="Path_963" data-name="Path 963" d="M39.731,47.39a.407.407,0,0,0,.119-.09.917.917,0,0,1,.694-.2c.1.012.2.031.3.047.027,0,.057.012.065.04s-.021.058-.048.073a4.917,4.917,0,0,0-.514.335c-.051.039-.1.079-.16.127a4.541,4.541,0,0,1-.365.374l-.044.044a.149.149,0,0,0-.029.034c.02.008,0,.006.015-.02l.044-.044a1.333,1.333,0,0,1,.409-.328,6.264,6.264,0,0,1,.615-.348,1,1,0,0,1,.1-.048c.131-.043.2.007.2.143a.609.609,0,0,1-.03.175c-.051.148-.105.295-.166.439a.671.671,0,0,1-.611.433c-.247.02-.493.054-.75.09a1.472,1.472,0,0,0-.249.022c-.1.03-.138-.016-.108-.118.059-.2.119-.4.186-.593a1.451,1.451,0,0,0,.037-.151,1.068,1.068,0,0,1,.252-.407A.054.054,0,0,0,39.731,47.39Z" transform="translate(1.18 -30.801)" fill="#bac92e"/>
    <path id="Path_964" data-name="Path 964" d="M54.846,87.433a2.452,2.452,0,0,0,.38-.112.948.948,0,0,1,1.077.554c.014.029.034.061.011.09s-.062.016-.091.006a2.952,2.952,0,0,0-.581-.145,1.539,1.539,0,0,0-.368-.03c.01.05.047.044.078.049a3.381,3.381,0,0,1,.879.272c.119.053.121.105.014.183s-.2.142-.312.222a.977.977,0,0,1-.345.1A.987.987,0,0,1,55,88.469a2.792,2.792,0,0,1-.5-.432c-.064-.066-.132-.127-.2-.19s-.08-.12.02-.166.19-.076.28-.125S54.76,87.479,54.846,87.433Z" transform="translate(-11.05 -63.504)" fill="#c48c2d"/>
    <path id="Path_965" data-name="Path 965" d="M167.484,22.4c-.036.054-.069.1-.1.139a1.066,1.066,0,0,1-.733.424c-.108.016-.121,0-.1-.112.019-.089.041-.178.063-.28a.25.25,0,0,1,.019-.17c.01-.031.022-.049.031-.08.021-.058.049-.1.069-.161a4.564,4.564,0,0,1,.24-.432,4.219,4.219,0,0,0-.242.427,1.768,1.768,0,0,1-.07.163c-.011.032-.025.05-.036.081a.312.312,0,0,1-.1.145c-.046.081-.078.162-.118.238-.028.053-.069.051-.1,0a1.118,1.118,0,0,1,.346-1.325c.064-.095.165-.108.254-.163.143-.076.276-.146.412-.212.109-.053.136-.039.169.076a.179.179,0,0,1,.011.063c-.021.254.049.5.034.756a.2.2,0,0,0,0,.1C167.609,22.192,167.54,22.286,167.484,22.4Z" transform="translate(-102.125 -9.614)" fill="#f9c608"/>
    <path id="Path_966" data-name="Path 966" d="M152.236,10.922c-.1.02-.159.1-.258.113-.033-.1.02-.181.039-.279,0-.013,0-.015,0-.016-.007-.063.036-.106.061-.168a.869.869,0,0,1,.072-.13c.09-.059.126-.155.212-.208a.946.946,0,0,1,.515-.163,5.534,5.534,0,0,1,.8.077c.126.02.146.061.09.171-.112.218-.221.437-.359.654a1.429,1.429,0,0,1-.444.363,1.014,1.014,0,0,1-.86-.059c-.064-.029-.057-.073-.011-.114s.1-.082.156-.133c.01-.055.048-.08.077-.114C152.295,10.906,152.272,10.925,152.236,10.922Z" transform="translate(-90.544 -0.683)" fill="#f9c608"/>
    <path id="Path_967" data-name="Path 967" d="M60.609,12.655c.032.146.072.28.105.416s.006.157-.127.129a.994.994,0,0,1-.822-.693,1.032,1.032,0,0,1-.025-.321c0-.086.007-.173.008-.274a.157.157,0,0,1,.009-.07.567.567,0,0,0,.011-.226,1.21,1.21,0,0,1,.038-.216c.014-.05.048-.066.1-.04s.127.055.2.086c.028,0,.041.011.046.034s0,.013,0,.014a.3.3,0,0,1,.139.069.313.313,0,0,0,.062.038c.041,0,.074,0,.1.04a.861.861,0,0,0,.136.1.912.912,0,0,1,.438,1,1.063,1.063,0,0,1-.126.358c-.1-.158-.138-.329-.236-.479a.267.267,0,0,1-.093-.125,3.319,3.319,0,0,0-.255-.44c.031.055.083.121.122.2s.081.166.135.254A.333.333,0,0,1,60.609,12.655Z" transform="translate(-15.518 -1.721)" fill="#f9c608"/>
    <path id="Path_968" data-name="Path 968" d="M130.843,104.48a1.04,1.04,0,0,0-.422.113c-.094.056-.173.008-.265-.028a.32.32,0,0,0-.112-.033l-.009-.006a.915.915,0,0,0-.2-.086,4.252,4.252,0,0,1-.636-.244,4.221,4.221,0,0,0-.84-.2c-.056-.009-.122,0-.154-.082.042-.151.171-.18.292-.234.118-.037.224-.074.33-.112a1.37,1.37,0,0,1,1.349.207.2.2,0,0,1,.145.118c.115.113.223.217.341.327a.062.062,0,0,1,.064.04C130.764,104.339,130.8,104.4,130.843,104.48Z" transform="translate(-71.213 -76.67)" fill="#d55126"/>
    <path id="Path_969" data-name="Path 969" d="M87.6,118a.485.485,0,0,0,.223.132c.072.026.164.039.167.159a1.085,1.085,0,0,1-.705.078.889.889,0,0,1-.473-.318,3.948,3.948,0,0,1-.4-.731c-.024-.048-.035-.107.05-.139a1.77,1.77,0,0,0,.506-.027,1.944,1.944,0,0,1,.5.021.759.759,0,0,1,.507.374,1.3,1.3,0,0,1,.16.422c.02.089-.011.119-.105.1a2.354,2.354,0,0,0-.409-.078c-.032-.009,0,0-.023,0s-.01,0-.009.006Z" transform="translate(-37.194 -87.789)" fill="#df1c24"/>
    <path id="Path_970" data-name="Path 970" d="M81.176,109a.428.428,0,0,0,.1-.158,1.186,1.186,0,0,1,.272-.339.083.083,0,0,1,.088-.027c.037.015.035.052.035.083a5.9,5.9,0,0,0,0,.62,5.541,5.541,0,0,1,.126-.58.854.854,0,0,1,.044-.121c.02-.042.052-.047.093-.022a.952.952,0,0,1,.339,1.12c-.054.125-.149.224-.2.363a1.983,1.983,0,0,0-.194.247c-.032.036-.065.072-.1.11-.047.058-.09.05-.131,0a2.945,2.945,0,0,1-.447-.78A1.552,1.552,0,0,1,81.176,109Z" transform="translate(-32.954 -80.708)" fill="#de1c24"/>
    <path id="Path_971" data-name="Path 971" d="M65.1,95.085a.142.142,0,0,0,.076-.066.837.837,0,0,1,.076-.1c.054-.059.114-.15.192-.127s.036.132.038.2c.007.191,0,.383.016.576.02-.242.074-.477.116-.714.022-.123.076-.144.175-.066a.872.872,0,0,1,.324,1.047c-.017.051-.032.1-.05.166-.128.2-.253.386-.382.571-.053.076-.082.083-.136.007a2.7,2.7,0,0,1-.527-.892.976.976,0,0,1,.045-.5c.008-.018.012-.023.02-.038S65.1,95.11,65.1,95.085Z" transform="translate(-19.8 -69.559)" fill="#ce6d29"/>
    <path id="Path_972" data-name="Path 972" d="M71.8,104.019c.15.05.3.064.432.118.08.032.179.056.189.154s-.085.139-.158.185c-.041.026-.083.05-.131.084a1.3,1.3,0,0,1-.342.114.922.922,0,0,1-.692-.24c-.138-.11-.277-.218-.416-.326l-.026-.019c-.109-.09-.107-.133.013-.2s.246-.134.369-.2l.111-.058c.135-.041.257-.083.383-.11a.831.831,0,0,1,.918.555c-.212-.034-.409-.09-.623-.108-.191.058-.37-.019-.531.011A1.759,1.759,0,0,1,71.8,104.019Z" transform="translate(-24.336 -76.69)" fill="#d55026"/>
    <path id="Path_973" data-name="Path 973" d="M140.556,102.467a1.506,1.506,0,0,1-.1-.319.656.656,0,0,1,.541.047c.064.007.109.037.162.042-.04-.011-.079-.022-.13-.038-.152-.061-.317-.064-.435-.2a.089.089,0,0,1,.07-.115A1.2,1.2,0,0,1,141,101.8a.279.279,0,0,1,.194-.01,1.359,1.359,0,0,1,.383.136.091.091,0,0,1,.075.043,4.4,4.4,0,0,0,.379.546c.155.21.17.226-.1.3a4.53,4.53,0,0,1-.724.117.519.519,0,0,1-.364-.124.305.305,0,0,1-.18-.182.168.168,0,0,0-.06-.1A.086.086,0,0,1,140.556,102.467Z" transform="translate(-81.181 -75.284)" fill="#d55026"/>
    <path id="Path_975" data-name="Path 975" d="M135.493,10.257c.057.14.109.27.159.4.009.024.023.054,0,.076s-.059.006-.086-.01c-.1-.062-.2-.124-.315-.192-.186-.028-.313-.162-.459-.2a1.4,1.4,0,0,1,.43.256c.1.094.2.178.3.263.044.038.061.089,0,.116a.758.758,0,0,1-.935-.142,1.1,1.1,0,0,1-.242-.359.354.354,0,0,0-.069-.1c-.042-.072-.073-.14-.105-.207s-.007-.086.048-.11a.6.6,0,0,1,.19-.031,2.948,2.948,0,0,1,.593-.03A.834.834,0,0,1,135.493,10.257Z" transform="translate(-76.055 -0.613)" fill="#f8c508"/>
    <path id="Path_976" data-name="Path 976" d="M41.944,28.217a.867.867,0,0,1,.283.52,1.849,1.849,0,0,1,.013.193c0,.047-.027.071-.073.058-.082-.022-.145-.03-.109.091.017.057-.032.068-.075.081a.768.768,0,0,1-.455-.036.224.224,0,0,1-.084-.024c-.058-.046-.109-.084-.169-.126-.017-.026-.04-.023-.061-.039-.118-.272-.207-.545-.3-.817-.019-.058,0-.106.078-.1.113.008.227.009.355.013a.247.247,0,0,1,.044.009c.056.005.1.009.162.012a.486.486,0,0,1,.266.086A1.392,1.392,0,0,0,41.944,28.217Z" transform="translate(-0.198 -15.283)" fill="#f9c608"/>
    <path id="Path_977" data-name="Path 977" d="M164.143,78.2c-.038-.064-.1-.1-.126-.158-.009-.025-.024-.052-.007-.076s.047-.019.074-.014c.061.01.118.053.192.016-.042-.069-.118-.069-.177-.1-.129-.063-.134-.122-.014-.2a1.44,1.44,0,0,1,.42-.186c.049-.052.1-.023.157-.019a2.445,2.445,0,0,1,.667.462c.074.071.08.116,0,.163a2.113,2.113,0,0,1-.594.279A.594.594,0,0,1,164.143,78.2Z" transform="translate(-100.331 -55.492)" fill="#abb633"/>
    <path id="Path_978" data-name="Path 978" d="M173.706,62.913a.129.129,0,0,0-.042-.008c-.127,0-.161-.042-.12-.151a.744.744,0,0,1,.209-.319,1.409,1.409,0,0,1,.264-.171c.276.013.537.082.8.12.043.006.094.031.058.086a2,2,0,0,1-.53.635.677.677,0,0,1-.572.052.127.127,0,0,1-.126-.058.1.1,0,0,1,.035-.137c.136-.1.3-.09.442-.18A1.348,1.348,0,0,1,173.706,62.913Z" transform="translate(-108.083 -43.142)" fill="#a0c736"/>
    <path id="Path_979" data-name="Path 979" d="M175.944,46.694a1.386,1.386,0,0,1-.439-.027.926.926,0,0,1-.218-.1c-.079-.053-.078-.1,0-.141.047-.026.1-.045.153-.075.091-.136.26-.106.36-.191a1.288,1.288,0,0,1-.377.122.389.389,0,0,0-.084.025c-.042.015-.085.07-.128.024s.005-.08.021-.118a.638.638,0,0,1,.472-.395c.057-.014.116-.022.185-.04.176.043.34.093.505.142s.193.093.082.239c-.071.093-.141.188-.215.279A1.289,1.289,0,0,1,175.944,46.694Z" transform="translate(-109.443 -29.729)" fill="#d3c521"/>
    <path id="Path_980" data-name="Path 980" d="M149.826,97.233a.692.692,0,0,1,.257-.51c.1-.024.157.005.173.1.01.06.047.108.056.168-.025-.1-.094-.192-.032-.313l.008-.01a.047.047,0,0,1,.025-.011.686.686,0,0,1,.242.2.608.608,0,0,1,.125.6,2.458,2.458,0,0,1-.182.462c-.048.09-.08.1-.163.045a1.073,1.073,0,0,1-.442-.537C149.871,97.366,149.85,97.306,149.826,97.233Z" transform="translate(-88.802 -71.119)" fill="#cd6c29"/>
    <path id="Path_981" data-name="Path 981" d="M67.393,8.768a.347.347,0,0,0,.01.186.635.635,0,0,1-.423.715c-.052.02-.074.018-.089-.043s-.051-.049-.094-.015c-.088.071-.09.069-.146-.029a.728.728,0,0,1-.074-.62.2.2,0,0,0,.019-.137c.163-.1.291-.242.445-.345a.309.309,0,0,0,.023-.022c.172-.144.186-.14.255.072C67.343,8.6,67.366,8.68,67.393,8.768Z" transform="translate(-21.049 0.709)" fill="#f7c408"/>
    <path id="Path_982" data-name="Path 982" d="M121.211,18.027a.826.826,0,0,1-.2.606c-.042.048-.081.112-.157.042-.009-.009-.038-.013-.044-.007-.09.1-.166.028-.257-.02a.774.774,0,0,1-.183-.442,1,1,0,0,1,.174-.494,1.672,1.672,0,0,1,.175-.248c.055-.072.106-.074.15.008C120.973,17.66,121.12,17.82,121.211,18.027Z" transform="translate(-64.842 -6.654)" fill="#f9c608"/>
    <path id="Path_983" data-name="Path 983" d="M46.883,17.315a.579.579,0,0,1-.472.386.332.332,0,0,1-.063.011c-.062.04-.1,0-.162-.016-.165-.068-.318-.13-.47-.2-.125-.053-.135-.1-.033-.2.125-.119.259-.226.394-.335a.609.609,0,0,1,.8.11.173.173,0,0,1-.029.163c.014.02.017.026.013.031s-.008.007-.023.008h-.064a.456.456,0,0,0-.149.035A.307.307,0,0,1,46.883,17.315Z" transform="translate(-4.027 -6.209)" fill="#f9c608"/>
    <path id="Path_984" data-name="Path 984" d="M37.191,33.751a.181.181,0,0,1-.013.177,1.307,1.307,0,0,1-.175.263.4.4,0,0,1-.3.112,2.859,2.859,0,0,1-.543-.032c-.134-.029-.168-.073-.091-.179s.12-.213.2-.312a.627.627,0,0,1,.834-.256c.024.019.046.019.061.04a.035.035,0,0,0,.006.023c.042.045.017.081-.007.117S37.169,33.735,37.191,33.751Z" transform="translate(3.77 -19.712)" fill="#f6c408"/>
    <path id="Path_985" data-name="Path 985" d="M46.75,75.22c.055.018.063.072.094.108.132-.122.138-.119.272,0a.524.524,0,0,1,.172.481c-.007.059-.022.116-.033.188a2.284,2.284,0,0,1-.26.437c-.056.074-.09.078-.132.009-.077-.124-.177-.23-.254-.351A.634.634,0,0,1,46.75,75.22Z" transform="translate(-4.744 -53.681)" fill="#aeb934"/>
    <path id="Path_986" data-name="Path 986" d="M40.895,64.608a1.043,1.043,0,0,0,.212.065.586.586,0,0,1,.381.5.064.064,0,0,1-.035.075c-.109.013-.148-.087-.234-.12a.53.53,0,0,1,.166.171.1.1,0,0,1-.049.13c-.038.018-.079.031-.127.054a1.333,1.333,0,0,1-.249,0,.43.43,0,0,1-.332-.186c-.1-.15-.153-.329-.264-.475-.025-.033-.014-.084-.064-.13A2.277,2.277,0,0,1,40.895,64.608Z" transform="translate(0.294 -45.049)" fill="#a2c838"/>
    <path id="Path_987" data-name="Path 987" d="M53.366,15.4a.728.728,0,0,1,.278.493c0,.048.018.1-.068.107a.314.314,0,0,1-.09-.009c-.153-.064-.284-.146-.432-.217a.247.247,0,0,0-.065-.04.272.272,0,0,1-.044-.024c-.007,0-.011-.018-.012-.01a.124.124,0,0,1,.035.024.2.2,0,0,1,.065.035c.143.078.275.157.424.227a.141.141,0,0,1,.05.043c.028.056.023.093-.033.108a.611.611,0,0,1-.709-.191c-.068-.089-.12-.189-.19-.289a.813.813,0,0,1-.089-.193c-.026-.1-.011-.128.1-.141.126-.016.252-.025.394-.036a2.333,2.333,0,0,1,.232.037C53.264,15.357,53.309,15.379,53.366,15.4Z" transform="translate(-9.607 -4.929)" fill="#f6c408"/>
    <path id="Path_988" data-name="Path 988" d="M94.839,125.938a.659.659,0,0,1,.468.269c.031.037.054.08.09.125a.393.393,0,0,1,.038.18.216.216,0,0,1-.111.183.61.61,0,0,1-.67,0,.868.868,0,0,1-.217-.274,2.2,2.2,0,0,1-.152-.3c-.035-.077-.02-.106.059-.131a.083.083,0,0,1,.032-.006A3.108,3.108,0,0,0,94.839,125.938Z" transform="translate(-43.606 -94.94)" fill="#de1c24"/>
    <path id="Path_989" data-name="Path 989" d="M129.409,11.273c.043.054.075.1.109.15s.02.08-.04.078c-.037,0-.073-.014-.108.008,0,.026.026.033.044.042.115.054.123.087.033.176a.663.663,0,0,1-.3.157c-.052.014-.1.023-.17.035a1.8,1.8,0,0,1-.552-.327c-.02-.018-.042-.034-.061-.053-.109-.109-.106-.137.025-.214a1.347,1.347,0,0,1,.585-.219A.507.507,0,0,1,129.409,11.273Z" transform="translate(-71.283 -1.524)" fill="#f9c608"/>
    <path id="Path_990" data-name="Path 990" d="M117.607,123.086a.574.574,0,0,0,.033-.089.17.17,0,0,1,.078-.172c.01-.006.008-.009.008-.007a.139.139,0,0,1,.1-.094l.177-.031a.159.159,0,0,1,.166.052c.007.009.01.007.008.007a.246.246,0,0,1,.157.157.833.833,0,0,1,.108.35,1.337,1.337,0,0,1-.092.43.578.578,0,0,1-.067.127c-.1.136-.178.131-.288-.022a1.035,1.035,0,0,1-.133-.132,1.128,1.128,0,0,0-.094-.1A.394.394,0,0,1,117.607,123.086Z" transform="translate(-62.573 -92.294)" fill="#dc1c24"/>
    <path id="Path_991" data-name="Path 991" d="M45,70.205c.039-.016.068-.031.1-.045.122-.056.143-.042.146.1a.588.588,0,0,1-.254.51c-.043.032-.087.062-.138.1a2.557,2.557,0,0,0-.513.06c-.1.013-.113.006-.117-.092a.244.244,0,0,1,0-.1,2.857,2.857,0,0,1,.224-.574c.023-.02.022-.041.041-.058s.01,0,.011,0a1.02,1.02,0,0,1,.433-.118.567.567,0,0,1,.166.021c-.014.072-.073.1-.12.144-.026.075-.1.088-.142.146l-.042.042a.155.155,0,0,0-.026.028c-.005.008,0,.005.013-.015l.043-.042A.3.3,0,0,1,45,70.205Z" transform="translate(-2.888 -49.425)" fill="#a2c838"/>
    <path id="Path_992" data-name="Path 992" d="M152.3,92.846c-.039-.1-.091-.189-.131-.282a.293.293,0,0,1-.047-.179.064.064,0,0,1,.025-.037c.139-.029.236.055.337.087-.069-.048-.173-.054-.248-.136a.075.075,0,0,1,.016-.086.731.731,0,0,1,.525.012c.128.075.16.209.237.31a2.718,2.718,0,0,1,.143.232c.05.082.032.128-.06.147a1.126,1.126,0,0,1-.723-.049A.42.42,0,0,0,152.3,92.846Z" transform="translate(-90.668 -67.47)" fill="#c57e2b"/>
    <path id="Path_994" data-name="Path 994" d="M72.533,8.535c-.051.031-.07.079-.1.115a.467.467,0,0,1-.417.163c-.05,0-.066-.029-.039-.089-.016-.008-.034-.032-.063-.017-.087.02-.131-.005-.137-.088a1,1,0,0,0-.019-.121,1,1,0,0,1,.117-.254.882.882,0,0,1,.69-.249c.07,0,.1.04.069.125C72.588,8.252,72.574,8.39,72.533,8.535Z" transform="translate(-25.293 1.005)" fill="#f7c408"/>
    <path id="Path_995" data-name="Path 995" d="M173.565,28.547a.921.921,0,0,0-.086-.035c-.257-.09-.307-.219-.178-.478a.1.1,0,0,1,.066-.1.845.845,0,0,1,.783.035c.118.055.126.111.033.206a2.338,2.338,0,0,1-.355.324.221.221,0,0,1-.16.051A.107.107,0,0,1,173.565,28.547Z" transform="translate(-107.842 -15.147)" fill="#f4c209"/>
    <path id="Path_996" data-name="Path 996" d="M82.8,10.257a1.1,1.1,0,0,0,.025-.16c.043-.115.092-.215.135-.318.029-.068.072-.081.122-.033a1.543,1.543,0,0,1,.409.521.5.5,0,0,0-.022.166.31.31,0,0,1-.183.278.15.15,0,0,1-.032-.037c-.02-.081,0-.154-.027-.235-.014-.047-.006-.093-.037-.112.028.012.017.052.033.091a.773.773,0,0,1,.02.2.113.113,0,0,0,.027.079c-.057.105-.111.123-.2.07a.508.508,0,0,1-.259-.377A.184.184,0,0,1,82.8,10.257Z" transform="translate(-34.274 -0.395)" fill="#f7c408"/>
    <path id="Path_997" data-name="Path 997" d="M177.553,42.319a.469.469,0,0,1-.331-.335c-.01-.031-.019-.087,0-.09.128-.018.108-.181.224-.22a.673.673,0,0,1,.542.375.3.3,0,0,1,.013.029c.09.195.065.235-.142.236C177.761,42.316,177.665,42.316,177.553,42.319Z" transform="translate(-111.078 -26.393)" fill="#d3c521"/>
    <path id="Path_998" data-name="Path 998" d="M161.9,12.715a.417.417,0,0,1-.281.024c-.111-.016-.169-.193-.118-.321a.317.317,0,0,1,.207-.191.76.76,0,0,1,.415,0c.078.02.091.053.059.131A.734.734,0,0,1,161.9,12.715Z" transform="translate(-98.286 -2.413)" fill="#f6c408"/>
    <path id="Path_999" data-name="Path 999" d="M38.174,44.982a.517.517,0,0,1,.15,0,.233.233,0,0,1,.137.4c-.024.029-.053.053-.083.09a.475.475,0,0,1-.062.039.073.073,0,0,1-.063.037c-.14.015-.262-.042-.393-.036-.072,0-.094-.071-.057-.164A.648.648,0,0,1,38.174,44.982Z" transform="translate(2.341 -29.08)" fill="#d3c521"/>
    <path id="Path_1000" data-name="Path 1000" d="M167.361,18.8c-.067-.052-.059-.136-.1-.211a.177.177,0,0,1,.066-.205.58.58,0,0,1,.544-.11c.1.026.121.076.081.168a.609.609,0,0,1-.389.366.311.311,0,0,1-.193,0C167.361,18.8,167.36,18.8,167.361,18.8Z" transform="translate(-102.977 -7.34)" fill="#f6c408"/>
    <path id="Path_1001" data-name="Path 1001" d="M59.511,95.22a.361.361,0,0,1,.264-.124c.172-.013.285.116.224.31a.352.352,0,0,1-.248.251,1.055,1.055,0,0,1-.279.061c-.054,0-.078-.021-.079-.075A.767.767,0,0,1,59.511,95.22Z" transform="translate(-15.235 -69.849)" fill="#c57e2b"/>
    <path id="Path_1002" data-name="Path 1002" d="M63.923,9.078c-.007.036-.019.06-.025.085-.059.225-.17.273-.386.157A.179.179,0,0,1,63.4,9.2a1.428,1.428,0,0,1,.026-.454c.029-.08.056-.108.129-.072A.615.615,0,0,1,63.923,9.078Z" transform="translate(-18.49 0.466)" fill="#f9c608"/>
    <path id="Path_1003" data-name="Path 1003" d="M142.534,8.864a.9.9,0,0,1-.191.186c-.059.031-.111.041-.159-.015a.4.4,0,0,0-.155-.105.52.52,0,0,1,.3-.557c.115-.064.153-.053.17.081A1.308,1.308,0,0,1,142.534,8.864Z" transform="translate(-82.454 0.728)" fill="#f7c408"/>
    <path id="Path_1004" data-name="Path 1004" d="M56.969,12.207a.613.613,0,0,1,0,.1c-.008.141-.042.179-.207.221a.313.313,0,0,1-.117-.49c.043-.074.088-.08.153-.018S56.908,12.139,56.969,12.207Z" transform="translate(-12.944 -2.237)" fill="#f4c209"/>
    <path id="Path_1010" data-name="Path 1010" d="M63.406,96.064a.644.644,0,0,1,.124.023.894.894,0,0,1-.191.238.149.149,0,0,1,.023-.153A.177.177,0,0,0,63.406,96.064Z" transform="translate(-18.439 -70.638)" fill="#946811"/>
    <path id="Path_1059" data-name="Path 1059" d="M166.861,19.785Z" transform="translate(-102.659 -8.586)" fill="#2a1415"/>
    <path id="Path_1063" data-name="Path 1063" d="M65.38,96.9c.011.007.009.016-.007.027C65.365,96.917,65.367,96.908,65.38,96.9Z" transform="translate(-20.097 -71.315)" fill="#512d1a"/>
    <path id="Path_1068" data-name="Path 1068" d="M155.057,37.517a3.021,3.021,0,0,0-.775-.191,8.979,8.979,0,0,0-1.423-.11c-.062,0-.144.026-.175-.048s.049-.112.093-.153a2.25,2.25,0,0,1,1.519-.641,1.785,1.785,0,0,1,1.153.414c.291.226.543.5.824.734q.223.189.442.382c.1.085.1.1-.013.156-.5.235-1,.473-1.5.7a1.88,1.88,0,0,1-2.279-.564,2.483,2.483,0,0,1-.288-.412c-.016-.028-.034-.056-.047-.085-.054-.121-.027-.167.109-.181a9.957,9.957,0,0,1,1.053-.062,5.589,5.589,0,0,1,1.285.138.108.108,0,0,1,.086-.034.765.765,0,0,0,.2.059.63.63,0,0,0,.083.033.516.516,0,0,0,.139.023,1.026,1.026,0,0,1-.122-.022.318.318,0,0,1-.044-.012,2.267,2.267,0,0,0-.262-.09A.079.079,0,0,1,155.057,37.517Z" transform="translate(-91.027 -22.08)" fill="#d8ca22"/>
    <path id="Path_1069" data-name="Path 1069" d="M85.548,97.211c.282-.013.555-.034.826-.073.032,0,.065,0,.1,0,.42-.026.841-.012,1.259-.04.691-.045,1.38-.01,2.086-.022-.084.411-.217.811-.344,1.223a.578.578,0,0,1-.364.089c-.641.021-1.278.1-1.919.109a.321.321,0,0,1-.157-.017,2.7,2.7,0,0,0-1.023-.538,2.265,2.265,0,0,0-.868-.041,3.471,3.471,0,0,0-1.449.574,2.332,2.332,0,0,0-.238.2.668.668,0,0,1-.205.133c-.011-.08.04-.111.072-.147a4.884,4.884,0,0,1,1.063-.895A4.935,4.935,0,0,1,85.548,97.211Z" transform="translate(-34.64 -71.458)" fill="#d16f2a"/>
    <path id="Path_1070" data-name="Path 1070" d="M105.479,81.515c-.27.048-.54.083-.81.112q-.374.04-.749.067c-.06,0-.114.027-.186.033q-.021-.437-.016-.876a2.9,2.9,0,0,0-.382-1.491c-.053-.094-.116-.183-.177-.285a1.186,1.186,0,0,1,.813-.091c.236.293.425.6.633.9.025.035.047.073.074.106.045.054.08.047.1-.021.036-.13.067-.261.1-.392.062-.24.124-.481.193-.731a.794.794,0,0,1,.6.081c-.052.384-.133.754-.17,1.131A10,10,0,0,0,105.479,81.515Z" transform="translate(-50.838 -56.603)" fill="#bda231"/>
    <path id="Path_1071" data-name="Path 1071" d="M132.6,30.054c.309-.235.617-.454.921-.679a4.712,4.712,0,0,0,1.121-1.093,3.992,3.992,0,0,0,.7-2.19.779.779,0,0,1,0-.171,3.012,3.012,0,0,0-.046-.615.319.319,0,0,1-.054-.155.509.509,0,0,1,0-.112,2.523,2.523,0,0,0-.025-.278.047.047,0,0,1,.024-.054.051.051,0,0,1,.069.023,1.01,1.01,0,0,1,.052.135,4.854,4.854,0,0,1,.237,1.775c-.008.173-.007.346-.028.519-.016.139.015.158.144.092.376-.192.751-.385,1.135-.561a6.486,6.486,0,0,1,1.94-.559c.264-.032.529-.023.793-.049.045,0,.1-.016.134.031-.032.054-.085.048-.131.055a11.764,11.764,0,0,0-1.83.427,3.769,3.769,0,0,0-1.211.645,11.729,11.729,0,0,0-1.148,1,3.494,3.494,0,0,0-.493.622c-.077.127-.072.145.082.17.256.042.513.076.769.117.058.009.16-.013.157.069s-.1.057-.16.056a4.473,4.473,0,0,0-1.283.164,4.658,4.658,0,0,0-1.579.8A.255.255,0,0,1,132.6,30.054Z" transform="translate(-74.789 -12.585)" fill="#d4c521"/>
    <path id="Path_1072" data-name="Path 1072" d="M117.071,52.9a.832.832,0,0,0,.273.2c-.255.223-.545.412-.82.622-.052.039-.1.08-.157.115a3.974,3.974,0,0,0-1.279,1.46A8.683,8.683,0,0,0,114.326,57c-.077.247-.14.5-.214.758-.2-.024-.387-.058-.592-.092a6.015,6.015,0,0,1,.226-.839c.172-.552.372-1.093.588-1.629a2.712,2.712,0,0,0,.184-.832.16.16,0,0,1,.009-.07,8.955,8.955,0,0,0,.007-1.2.286.286,0,0,1-.019-.134c0-.056,0-.1,0-.158.159-.014.318-.015.491-.017a6.922,6.922,0,0,1,.071,1.646c.013.032.027.035.051.021a6.724,6.724,0,0,1,1.577-1.336C116.82,53.043,116.941,52.972,117.071,52.9Z" transform="translate(-59.267 -35.435)" fill="#a3c938"/>
    <path id="Path_1073" data-name="Path 1073" d="M127.693,61.279a3.936,3.936,0,0,1,1.846-.918,16.483,16.483,0,0,0,1.891-.456,3.536,3.536,0,0,0,1.039-.524,3.753,3.753,0,0,0,1.047-1.287,5.253,5.253,0,0,0,.306-.7.274.274,0,0,1,.067-.131.977.977,0,0,1,0,.351,2.833,2.833,0,0,1-.429,1.163,5.487,5.487,0,0,1-1.22,1.36c-.053.042-.146.076-.13.151s.114.065.179.086a3.778,3.778,0,0,1,1.3.646,8.926,8.926,0,0,1,.727.743c.01.01.01.029.016.05-.067.037-.116-.011-.162-.037a3.548,3.548,0,0,1-.556-.394c-.109-.089-.223-.172-.327-.267a1.717,1.717,0,0,0-.66-.335,5.186,5.186,0,0,0-1.79-.255,4.486,4.486,0,0,0-1.869.493,3.827,3.827,0,0,0-.543.315.221.221,0,0,1-.191.057A.888.888,0,0,1,127.693,61.279Z" transform="translate(-70.797 -39.074)" fill="#a1c638"/>
    <path id="Path_1074" data-name="Path 1074" d="M147.027,55.662a2.6,2.6,0,0,1,.092,1.386,1.635,1.635,0,0,1-.47.821,2.567,2.567,0,0,1-1.2.681l-.031.008c-.135.028-.155.014-.144-.124a6.667,6.667,0,0,1,.29-1.478,6.849,6.849,0,0,1,.586-1.346,2.591,2.591,0,0,0,.775.023A.142.142,0,0,1,147.027,55.662Z" transform="translate(-85.097 -37.728)" fill="#a4cc39"/>
    <path id="Path_1075" data-name="Path 1075" d="M130.184,57.133a1.469,1.469,0,0,1,.291.986,1.553,1.553,0,0,1-.571,1.04c-.065.057-.135.109-.2.162-.04.031-.07.016-.09-.026a.237.237,0,0,1-.017-.045,5.343,5.343,0,0,1-.169-1.12,4.891,4.891,0,0,1,.058-.938.383.383,0,0,0,0-.062c-.057,0-.052.035-.059.064a5.117,5.117,0,0,0-.1,1.724c.01.086.016.172.024.258,0,.036.024.079-.017.1s-.07-.009-.1-.032a1.553,1.553,0,0,1-.306-.312,1.623,1.623,0,0,1-.345-.894,1.346,1.346,0,0,1,.226-.751c.213-.346.456-.671.693-1,.07-.1.1-.1.162.008C129.834,56.572,130.005,56.848,130.184,57.133Z" transform="translate(-71.517 -38.224)" fill="#a3ca38"/>
    <path id="Path_1076" data-name="Path 1076" d="M143.381,50.275a2.171,2.171,0,0,1-.546.046.6.6,0,0,1-.327-.088c0-.04.037-.072.006-.1s-.067.011-.086.04c-.135.21-.259.426-.374.646a7.826,7.826,0,0,0-.721,1.942.815.815,0,0,1-.024.094c-.014.039-.014.093-.071.1s-.074-.041-.1-.078a2.633,2.633,0,0,1-.333-.909,2.374,2.374,0,0,1-.018-.679,1.783,1.783,0,0,1,.681-1.178c.293-.242.615-.442.925-.661.186-.131.375-.258.563-.385.149-.1.156-.1.191.072C143.228,49.51,143.3,49.886,143.381,50.275Z" transform="translate(-81.439 -32.347)" fill="#bbcb2f"/>
    <path id="Path_1077" data-name="Path 1077" d="M123.339,78.733a.14.14,0,0,0,.092.038,5.881,5.881,0,0,0,.627.034,1.236,1.236,0,0,0,.361.061c.257.031.517.046.771.1a3,3,0,0,1,2.154,1.618,2.044,2.044,0,0,1,.2,1.123c-.077,0-.073-.063-.087-.1a5.512,5.512,0,0,0-.212-.527,3.266,3.266,0,0,0-.95-1.237.316.316,0,0,0-.165-.082c-.012.006-.023.015-.019.009.023-.05-.015-.063-.041-.077a1.969,1.969,0,0,0-1.186-.252,3.1,3.1,0,0,0-1.122.388c-.436,0-.854-.077-1.276-.1a.194.194,0,0,1-.139-.067A3.233,3.233,0,0,1,123.339,78.733Z" transform="translate(-66.452 -56.539)" fill="#aeb934"/>
    <path id="Path_1078" data-name="Path 1078" d="M103.483,103.847a.638.638,0,0,1,.269-.048,7.856,7.856,0,0,0,.935-.062.183.183,0,0,1,.032,0c.276.016.549-.049.825-.035a3.474,3.474,0,0,1,.368-.03c.006.237-.049.469-.065.706s-.017.463-.021.71c-.3.015-.6,0-.905.017a5.342,5.342,0,0,0-.841.11,1.068,1.068,0,0,1-.172.019c-.044-.159-.018-.323-.049-.483A2.492,2.492,0,0,0,103.483,103.847Z" transform="translate(-51.103 -76.822)" fill="#d95227"/>
    <path id="Path_1079" data-name="Path 1079" d="M122.916,90.712a.461.461,0,0,1,0-.214,2.693,2.693,0,0,0,.055-.554,1.477,1.477,0,0,1-.016-.472.586.586,0,0,0,0-.171c-.043-.114.007-.231-.049-.329.053.093.012.2.041.309a1.41,1.41,0,0,1-.068.636c-.052.233-.083.458-.152.674-.044.138-.072.15-.19.061a1.362,1.362,0,0,1-.526-.842.225.225,0,0,1-.018-.067c0-.077,0-.143,0-.223a.156.156,0,0,1,.009-.07,1.458,1.458,0,0,1,.239-.541c.154-.216.3-.434.46-.662.027-.035.032-.071.064-.1a.06.06,0,0,0,.034-.034.056.056,0,0,1,.057-.021c.174.265.339.525.5.788a1.35,1.35,0,0,1,.238.727,1.206,1.206,0,0,1-.315.794c-.053.061-.111.118-.173.186A.173.173,0,0,1,122.916,90.712Z" transform="translate(-66.161 -64.152)" fill="#c8802b"/>
    <path id="Path_1080" data-name="Path 1080" d="M131.407,91.19a2.21,2.21,0,0,1,.27-.717.12.12,0,0,1,.037-.066,1.611,1.611,0,0,1,.934-.537.219.219,0,0,1,.067-.02c.078,0,.144-.007.224-.014a.355.355,0,0,1,.165-.021c.132,0,.252-.005.387-.011a.361.361,0,0,1,.165-.021c.089,0,.166,0,.258-.011a.263.263,0,0,1,.129-.02c.1.035.081.1.057.162-.1.275-.192.551-.287.827-.034.1-.066.194-.107.3a.16.16,0,0,1-.124.056c-.358-.029-.719-.035-1.076-.081-.01,0-.019-.009-.038-.024-.055-.105.021-.146.078-.192.124-.1.269-.174.4-.3-.269.115-.46.312-.706.436a1.9,1.9,0,0,0-.33.251.152.152,0,0,1-.073.081,2.6,2.6,0,0,0-.331.293c-.024.021-.047.051-.082.037s-.034-.052-.035-.083c0-.08,0-.161,0-.256A.157.157,0,0,1,131.407,91.19Z" transform="translate(-73.808 -65.502)" fill="#c58c2d"/>
    <path id="Path_1081" data-name="Path 1081" d="M122.831,66.427a4.652,4.652,0,0,1-.105,1.3c-.042.174-.063.185-.2.068a1.408,1.408,0,0,1-.513-.8.8.8,0,0,1,.058-.522,10.165,10.165,0,0,1,.588-.97c.042-.066.075-.065.123,0a8.59,8.59,0,0,1,.589.874,1.054,1.054,0,0,1-.138,1.172,1.359,1.359,0,0,1-.261.266c-.04.031-.074.02-.075-.034a1.072,1.072,0,0,1,.009-.162,3.845,3.845,0,0,0-.028-1.172c-.066-.073-.035-.15-.048-.222A1.008,1.008,0,0,1,122.831,66.427Z" transform="translate(-66.161 -45.733)" fill="#a3c938"/>
    <path id="Path_1082" data-name="Path 1082" d="M118.346,83.672c.2.045.4.032.6.058.259.034.52.052.78.077.009,0,.018.011.035.03-.163.125-.338.233-.5.351a5.039,5.039,0,0,0-1.238,1.262,1.688,1.688,0,0,0-.309.028.33.33,0,0,1-.258-.025,4.639,4.639,0,0,1,.435-1.067A4.978,4.978,0,0,1,118.346,83.672Z" transform="translate(-62.463 -60.557)" fill="#bca131"/>
    <path id="Path_1083" data-name="Path 1083" d="M133.3,95.958a.1.1,0,0,0,.117.075c.252-.02.5.048.751.035a3.3,3.3,0,0,0,.364.03,1.364,1.364,0,0,1-1.166.976,2.043,2.043,0,0,1-.755-.042.542.542,0,0,1-.109-.032c-.075-.033-.085-.069-.039-.137.021-.031.047-.059.074-.1.026-.124.116-.175.212-.236a.227.227,0,0,0,.038-.038.529.529,0,0,1,.255-.287.213.213,0,0,0,.038-.037C133.141,96.075,133.158,95.955,133.3,95.958Z" transform="translate(-74.658 -70.551)" fill="#d06e2a"/>
    <path id="Path_1084" data-name="Path 1084" d="M132.057,83.587a.834.834,0,0,0,.086-.031c.057-.023.092,0,.111.055a.829.829,0,0,1-.492,1.01c-.214.075-.433.136-.648.207-.067.022-.1,0-.088-.064a4.024,4.024,0,0,1,.113-.817.761.761,0,0,1,.661-.523,1.156,1.156,0,0,1,.194-.012c.052,0,.062.034.035.09-.1.164-.249.266-.36.417a1.5,1.5,0,0,0-.2.258.369.369,0,0,1-.021.031s.008-.012.013-.018a1.783,1.783,0,0,1,.2-.257C131.786,83.808,131.878,83.655,132.057,83.587Z" transform="translate(-73.506 -60.345)" fill="#ba9e30"/>
    <path id="Path_1085" data-name="Path 1085" d="M156.239,52.07a2.018,2.018,0,0,0-.08.471.2.2,0,0,1-.006.048c-.006.025-.009.056-.039.065s-.051-.015-.065-.038a.863.863,0,0,1-.118-.229.642.642,0,0,1,.119-.651c.1-.1.188-.209.286-.309s.123-.1.185.023a3.668,3.668,0,0,1,.2.441.673.673,0,0,1-.334.81c-.114.054-.149.033-.141-.091.011-.167.028-.333.043-.514-.053-.087.037-.14.011-.192A.424.424,0,0,1,156.239,52.07Z" transform="translate(-93.738 -34.266)" fill="#b8c72e"/>
    <path id="Path_1086" data-name="Path 1086" d="M136.787,53.457c-.018-.048-.042-.054-.046-.012-.01.108-.01.216-.019.324-.005.062.025.156-.04.176s-.113-.068-.153-.122a.585.585,0,0,1-.077-.613,2.538,2.538,0,0,1,.331-.519c.04-.054.08-.047.114.008.1.157.2.308.283.473a.645.645,0,0,1-.253.81c-.06.044-.1.026-.119-.044a.486.486,0,0,1-.008-.1C136.8,53.72,136.793,53.6,136.787,53.457Z" transform="translate(-77.88 -35.326)" fill="#b7c52e"/>
    <path id="Path_1087" data-name="Path 1087" d="M145.181,77.4a1.112,1.112,0,0,0-.126.076c-.049.031-.086.012-.1-.041a.653.653,0,0,1,.272-.736,3.117,3.117,0,0,1,.595-.211c.062-.018.1.007.092.072a2.994,2.994,0,0,1-.068.611.66.66,0,0,1-.648.419c-.106-.018-.031-.071,0-.12A.067.067,0,0,0,145.181,77.4Z" transform="translate(-84.825 -54.712)" fill="#acb634"/>
    <path id="Path_1088" data-name="Path 1088" d="M145.795,95.286c-.031.028-.055.047-.083.075a1.516,1.516,0,0,0-.2.2c-.067.065-.1.068-.138-.007a1.489,1.489,0,0,1-.213-.658.675.675,0,0,1,.406-.581.169.169,0,0,1,.136.016,2.317,2.317,0,0,1-.079.68,2.088,2.088,0,0,0,.084-.432.3.3,0,0,1,.062-.175c.109-.021.14.06.167.124a.594.594,0,0,1-.062.664C145.847,95.217,145.824,95.247,145.795,95.286Z" transform="translate(-85.003 -69.204)" fill="#c57e2b"/>
    <path id="Path_1089" data-name="Path 1089" d="M118.325,101.944c.1-.043.192-.086.294-.134a.133.133,0,0,1,.1-.024,1.033,1.033,0,0,1,.253.03.084.084,0,0,1,.072.027c.042.039.081.069.115.1s.09.065.077.142c-.012.039-.052.058-.025.106.026.09-.042.122-.086.18,0,.017,0,.023-.006.02a.549.549,0,0,0-.122.036.462.462,0,0,1-.418-.031c-.051-.03-.1-.061-.162-.1a.255.255,0,0,1-.107-.07c-.006-.019-.012-.025-.027-.031-.044-.021-.088-.032-.105-.088a.48.48,0,0,1,.026-.087A.132.132,0,0,1,118.325,101.944Z" transform="translate(-63.058 -75.291)" fill="#d35026"/>
    <path id="Path_1090" data-name="Path 1090" d="M123.854,102.332a1.976,1.976,0,0,1-.372-.194c-.018-.031-.017-.051.006-.068a.144.144,0,0,0,.057-.039.478.478,0,0,1,.234-.208.19.19,0,0,0,.057-.037,1.533,1.533,0,0,1,.774-.488.388.388,0,0,0,.066-.009.134.134,0,0,1,.069-.021c.047.006.107-.024.1.067a.236.236,0,0,1-.161.181c-.239.231-.467.46-.7.688C123.949,102.246,123.906,102.287,123.854,102.332Z" transform="translate(-67.361 -74.871)" fill="#d35026"/>
    <path id="Path_1091" data-name="Path 1091" d="M139.577,84.075c-.009-.084.014-.124.1-.106a.941.941,0,0,1,.243.1.1.1,0,0,1,.071.055.6.6,0,0,1,.128.452c-.006.092-.017.183-.028.274s-.037.107-.131.071a1.486,1.486,0,0,1-.327-.178.546.546,0,0,1-.21-.576c.009-.061.036-.094.1-.027.06.017.076.057.094.106,0,.012,0,.018.005.011A.491.491,0,0,1,139.577,84.075Z" transform="translate(-80.328 -60.794)" fill="#b79b2f"/>
    <path id="Path_1092" data-name="Path 1092" d="M119.282,78.112c-.079.024-.169-.035-.221.054.013.035.038.025.057.03.043.011.11-.026.123.04.01.051-.047.079-.082.111a.437.437,0,0,1-.4.109,1.668,1.668,0,0,1-.406-.156c-.069-.034-.066-.079-.016-.126a3.08,3.08,0,0,1,.272-.253.491.491,0,0,1,.667.1C119.291,78.043,119.312,78.069,119.282,78.112Z" transform="translate(-63.152 -55.805)" fill="#acb634"/>
    <path id="Path_1093" data-name="Path 1093" d="M139.637,76.1a.953.953,0,0,1,.627-.043c.042.005.075.037.053.08-.106.209-.182.447-.454.509a.35.35,0,0,1-.128.009c-.274-.039-.361-.239-.2-.457A.821.821,0,0,1,139.637,76.1Z" transform="translate(-80.365 -54.339)" fill="#abb633"/>
    <path id="Path_1166" data-name="Path 1166" d="M148.386,94.644a.025.025,0,0,1-.025-.008.1.1,0,0,1,.016-.016C148.385,94.622,148.387,94.629,148.386,94.644Z" transform="translate(-87.61 -69.463)" fill="#c57e2b"/>
    <path id="Path_1167" data-name="Path 1167" d="M55.986,21.7c.114,0,.217,0,.319,0s.1-.027.058-.11-.1-.166-.153-.249a6.578,6.578,0,0,1-.657-1.354c-.049-.143-.077-.292-.119-.451a.147.147,0,0,1-.02-.071,4.354,4.354,0,0,1,.027-.915c.007-.036,0-.077.049-.1.051.023.044.075.047.118a4.365,4.365,0,0,0,.255,1.2,3.736,3.736,0,0,0,1.2,1.72,7.521,7.521,0,0,0,.924.571,12.387,12.387,0,0,1,1.152.7,4.03,4.03,0,0,1,.834.835c.1.129.186.266.28.41,0,.032-.013.055-.033.062a2.139,2.139,0,0,1-.68.187,8.786,8.786,0,0,0-.667-.769A4.618,4.618,0,0,0,57.065,22.4a4.17,4.17,0,0,0-4.11.787.569.569,0,0,1-.222.149,1.105,1.105,0,0,1,.258-.424,4.059,4.059,0,0,1,2.142-1.083,4.335,4.335,0,0,1,.783-.11A.213.213,0,0,1,55.986,21.7Z" transform="translate(-9.818 -7.495)" fill="#d5c722"/>
    <path id="Path_1168" data-name="Path 1168" d="M84.217,65.962a1.634,1.634,0,0,1,.025-1.511c.223-.433.475-.85.726-1.268.069-.115.088-.117.172-.009.329.423.662.844.962,1.287a1.51,1.51,0,0,1,.117,1.474,2.207,2.207,0,0,1-.641.866c-.1.083-.124.077-.169-.046a6.122,6.122,0,0,1-.34-1.4,7.253,7.253,0,0,1-.034-1.021.438.438,0,0,0-.01-.164c-.076.01-.064.072-.067.111-.018.2-.038.41-.043.615a7.455,7.455,0,0,0,.171,1.74c.014.065.064.151-.009.192s-.128-.039-.182-.078A2.114,2.114,0,0,1,84.217,65.962Z" transform="translate(-35.29 -43.819)" fill="#a4cb38"/>
    <path id="Path_1169" data-name="Path 1169" d="M55.651,45.547a.314.314,0,0,0,.188-.053c.344-.157.672-.349,1.026-.485a7.092,7.092,0,0,1,1.383-.338c.133-.022.267-.04.4-.058s.164,0,.147.146a.919.919,0,0,1-.041.19,2.836,2.836,0,0,1-.7,1.154,1.882,1.882,0,0,1-1.638.525c-.632-.085-1.254-.23-1.881-.346-.027,0-.052-.013-.079-.019-.054-.012-.055-.044-.03-.084s.041-.063.063-.094c.166-.24.332-.481.506-.728a.244.244,0,0,1,.24.012c.122.046.226.128.36.173A.541.541,0,0,1,55.651,45.547Z" transform="translate(-11.185 -28.778)" fill="#bccb2f"/>
    <path id="Path_1170" data-name="Path 1170" d="M95.405,61.514c-.266,0-.53.064-.812.084-.253-.332-.489-.667-.732-1a4.262,4.262,0,0,1-.516-.951c-.095-.235-.17-.477-.245-.72-.159-.51-.321-1.019-.484-1.541a.07.07,0,0,1,.067-.049,3.692,3.692,0,0,1,.938.084,4.4,4.4,0,0,0,.057.736,5.989,5.989,0,0,0,.336.91,13.127,13.127,0,0,0,1.056,1.895C95.181,61.144,95.291,61.324,95.405,61.514Z" transform="translate(-42.262 -39.136)" fill="#a4cb38"/>
    <path id="Path_1171" data-name="Path 1171" d="M53.753,69.484c-.535,0-1.062,0-1.6,0a2,2,0,0,1,1.638-1.758,3.644,3.644,0,0,1,1.033-.023.537.537,0,0,1,.217.063c.083.048.092.08.033.169-.1.144-.2.286-.3.425A8.119,8.119,0,0,1,53.753,69.484Z" transform="translate(-9.344 -47.544)" fill="#a5cc39"/>
    <path id="Path_1172" data-name="Path 1172" d="M69.871,81.255c.024.082.086.136.09.216-.061.044-.117.011-.172,0a8.1,8.1,0,0,0-1.287-.255,1.551,1.551,0,0,0-.574.033,5.445,5.445,0,0,1,1.4.27c.186.058.362.142.542.216.089.037.1.078.032.145a1.4,1.4,0,0,1-1.93.187c-.3-.251-.578-.522-.863-.787-.1-.1-.1-.116.036-.176l.843-.379a1.807,1.807,0,0,1,.672-.169,1.21,1.21,0,0,1,.578.136,1.55,1.55,0,0,1,.428.308A.413.413,0,0,1,69.871,81.255Z" transform="translate(-21.453 -58.019)" fill="#bba030"/>
    <path id="Path_1173" data-name="Path 1173" d="M59.808,59.013a2.185,2.185,0,0,1-.453.216,3.672,3.672,0,0,1-.344-.574,4.063,4.063,0,0,0-1.748-1.689,2.115,2.115,0,0,0-1.1-.221,2.955,2.955,0,0,0-1.354.408,1.008,1.008,0,0,1-.113.053.065.065,0,0,1-.043-.029A2.721,2.721,0,0,1,56,56.469a2.137,2.137,0,0,1,1.4.214,6.708,6.708,0,0,1,1.16.742c.041.032.075.08.135.082.044-.025.031-.067.026-.1a9.272,9.272,0,0,1-.057-1.425,3.453,3.453,0,0,1,.1-.883,1.849,1.849,0,0,1,.245-.51c.018-.027.033-.058.065-.07s.078,0,.076.05a.3.3,0,0,1-.027.093A2.85,2.85,0,0,0,59,56.13c.073.492.155.983.231,1.474a3.185,3.185,0,0,0,.491,1.26C59.747,58.91,59.775,58.957,59.808,59.013Z" transform="translate(-11.379 -36.835)" fill="#a1c637"/>
    <path id="Path_1174" data-name="Path 1174" d="M79.814,54.9c-.013-.047-.039-.048-.062-.028a1.011,1.011,0,0,0-.1.1,6.6,6.6,0,0,0-.662.921c-.014.023-.026.047-.042.069s-.033.06-.074.047-.031-.041-.036-.067A1.767,1.767,0,0,1,78.85,55a1.189,1.189,0,0,1,.689-.735c.376-.167.776-.268,1.164-.4.083-.029.1-.011.1.088-.015.237-.034.475-.053.712-.012.145-.022.291-.043.436a1.275,1.275,0,0,1-1,1.109,1.5,1.5,0,0,1-.5.048c-.119-.006-.136-.029-.092-.139a4.515,4.515,0,0,1,.471-.886C79.659,55.122,79.736,55.018,79.814,54.9Z" transform="translate(-31.006 -36.296)" fill="#a3ca38"/>
    <path id="Path_1175" data-name="Path 1175" d="M58.288,41.871c-.059.04-.1.018-.147-.016a1.147,1.147,0,0,0-.48-.208,3.766,3.766,0,0,1,.71-1.014,1.862,1.862,0,0,1,1.479-.577,2.85,2.85,0,0,1,1.267.362l.043.024c.029.017.056.036.047.075a.072.072,0,0,1-.056.052l-.266.073a9.628,9.628,0,0,0-2.071.84,2.074,2.074,0,0,0-.494.355c0,.01,0,.009,0,.008A.185.185,0,0,0,58.288,41.871Z" transform="translate(-13.827 -25.073)" fill="#d8ca22"/>
    <path id="Path_1176" data-name="Path 1176" d="M90.545,49.761c-.336-.011-.666-.01-1.01-.05-.157-.355-.294-.712-.48-1.048-.079-.142-.159-.282-.242-.434.232-.086.467-.16.713-.239.192.275.326.581.49.87.048.084.093.169.148.261.03.006.048.02.077.008a6.123,6.123,0,0,1,.472-.627,3.354,3.354,0,0,1,.7-.569.067.067,0,0,1,.07-.007c0,.054-.037.092-.064.135-.2.316-.4.625-.576.956A4.238,4.238,0,0,0,90.545,49.761Z" transform="translate(-39.169 -31.473)" fill="#bbca2e"/>
    <path id="Path_1177" data-name="Path 1177" d="M94.986,78.432a3.234,3.234,0,0,0-.15.853.772.772,0,0,1-.016.112c0,.026,0,.056-.036.067s-.06-.016-.079-.041a1.056,1.056,0,0,1-.01-1.435c.185-.2.39-.39.588-.581.064-.062.089-.056.125.033.1.261.219.519.3.786a.953.953,0,0,1-.294,1.086,1.8,1.8,0,0,1-.277.2c-.122.071-.166.046-.171-.092a3.894,3.894,0,0,1,.069-.965.58.58,0,0,1,.055-.277C95.05,78.242,95.056,78.348,94.986,78.432Z" transform="translate(-43.729 -55.427)" fill="#bb9f30"/>
    <path id="Path_1178" data-name="Path 1178" d="M68.823,59.139c-.063.015-.027.052-.013.082.044.093.093.183.136.276a.538.538,0,0,1,.044.139c.015.095-.026.142-.116.119a1.962,1.962,0,0,1-.612-.251.535.535,0,0,1-.218-.331,3.587,3.587,0,0,1-.1-.884c0-.1.019-.114.1-.088a3.977,3.977,0,0,1,.727.275.854.854,0,0,1,.434,1.006c0,.031-.015.066-.056.069s-.047-.023-.062-.045a3.512,3.512,0,0,0-.216-.336A.184.184,0,0,1,68.823,59.139Z" transform="translate(-22.19 -39.827)" fill="#a2c838"/>
    <path id="Path_1179" data-name="Path 1179" d="M79.5,47.238a1.77,1.77,0,0,1-.132.308.748.748,0,0,1-.152-.493.625.625,0,0,1,.221-.47,3.946,3.946,0,0,1,.5-.352c.055-.036.089-.021.105.043a3.023,3.023,0,0,1,.118.782.384.384,0,0,1-.134.3,3.938,3.938,0,0,1-.383.272c-.078.05-.12.023-.129-.069a1.361,1.361,0,0,1,.037-.3.953.953,0,0,1,.11-.408.407.407,0,0,1,.014-.041c.007-.017.02-.029.026-.046a.416.416,0,0,0-.035.065A2.745,2.745,0,0,1,79.5,47.238Z" transform="translate(-31.359 -30.083)" fill="#b8c72e"/>
    <path id="Path_1180" data-name="Path 1180" d="M60.758,57.12a1.625,1.625,0,0,0-.129.455c-.007.032-.007.065-.017.1-.018.057-.052.061-.092.015a.683.683,0,0,1-.065-.719.875.875,0,0,1,.219-.258c.088-.072.175-.145.263-.217.052-.043.1-.049.126.024a2.3,2.3,0,0,1,.186.7.386.386,0,0,1-.126.321,3.386,3.386,0,0,1-.258.223c-.089.066-.14.041-.148-.069a1.752,1.752,0,0,1,.055-.545c0-.023.005-.037,0-.039S60.76,57.1,60.758,57.12Z" transform="translate(-16.04 -38.42)" fill="#a1c637"/>
    <path id="Path_1181" data-name="Path 1181" d="M70.639,72.633c0,.035.006.056.008.077l.018,0c.012-.1.023-.2.036-.3.009-.073-.007-.18.064-.2s.139.068.194.125a.555.555,0,0,1,.107.658c-.069.141-.155.273-.232.41-.032.056-.072.065-.116.018a1.485,1.485,0,0,1-.356-.538.627.627,0,0,1,.134-.577c.022-.031.055-.06.1-.046s.037.06.039.1C70.635,72.446,70.636,72.533,70.639,72.633Z" transform="translate(-24.139 -51.232)" fill="#9fc437"/>
    <path id="Path_1182" data-name="Path 1182" d="M51.408,47.136c0-.07.027-.093.083-.061a.531.531,0,0,1,.231.486.9.9,0,0,1-.055.185,2.935,2.935,0,0,1-.244.4c-.029.048-.066.055-.1.01a1.279,1.279,0,0,1-.295-.514A.572.572,0,0,1,51.2,47.1c.045-.047.092-.055.139.017a.841.841,0,0,1,.1.535c0,.022.027,0,.006.007,0,0-.006,0-.005-.014A3.523,3.523,0,0,0,51.408,47.136Z" transform="translate(-8.419 -30.774)" fill="#b7c52e"/>
    <path id="Path_1183" data-name="Path 1183" d="M100.014,88.2c-.144,0-.161-.019-.117-.133a.473.473,0,0,1,.516-.359,1.344,1.344,0,0,1,.429.076c.067.02.094.056.061.118a1.035,1.035,0,0,1-.344.423.566.566,0,0,1-.481.055.113.113,0,0,1-.131-.056.168.168,0,0,1,.043-.071,1.51,1.51,0,0,1,.335-.132A1.547,1.547,0,0,1,100.014,88.2Z" transform="translate(-48.169 -63.843)" fill="#b79b2f"/>
    <path id="Path_1184" data-name="Path 1184" d="M54.938,42.891a.528.528,0,0,1,.175-.335.224.224,0,0,1,.362.042.466.466,0,0,1,.054.477,1.193,1.193,0,0,1-.292.385c-.045.042-.075.028-.1-.016A.958.958,0,0,1,54.938,42.891Z" transform="translate(-11.612 -27.051)" fill="#d0c121"/>
    <path id="Path_1196" data-name="Path 1196" d="M54.067,69.132a.346.346,0,0,1-.073.005c0-.015.017-.03.042-.05a.035.035,0,0,1,.036.018A.026.026,0,0,1,54.067,69.132Z" transform="translate(-10.845 -48.692)" fill="#a1c637"/>
    <path id="Path_1197" data-name="Path 1197" d="M72.7,63.252c.01-.02.02-.008.031.013C72.723,63.269,72.715,63.266,72.7,63.252Z" transform="translate(-26.06 -43.937)" fill="#53491f"/>
    <path id="Path_1198" data-name="Path 1198" d="M54.463,68.8a.044.044,0,0,1,.02-.04c.014,0,.021.01.037.028a.027.027,0,0,1-.018.036A.06.06,0,0,1,54.463,68.8Z" transform="translate(-11.226 -48.424)" fill="#a1c637"/>
    <path id="Path_1199" data-name="Path 1199" d="M54.357,68.953c0,.019,0,.026-.021.033s-.018-.009-.03-.023a.029.029,0,0,1,.015-.034C54.334,68.931,54.341,68.937,54.357,68.953Z" transform="translate(-11.097 -48.563)" fill="#a1c637"/>
    <path id="Path_1200" data-name="Path 1200" d="M103.509,58.843a2.149,2.149,0,0,0-.013-.421.261.261,0,0,1-.018-.069c0-.067-.007-.123-.014-.192a.235.235,0,0,1-.018-.068c0-.067-.007-.123-.014-.192a.363.363,0,0,1-.022-.067,2.46,2.46,0,0,0-.075-.389c-.016-.032-.033-.047-.049-.076a.376.376,0,0,1-.057-.189c-.052-.131-.053-.265-.1-.351.036.086.052.212.1.343a.569.569,0,0,0,.046.189.068.068,0,0,1-.026.065,10.244,10.244,0,0,1,.06,1.1,7.208,7.208,0,0,1-.06.727c-.019.143-.049.163-.177.1a2.118,2.118,0,0,1-.9-.863,1.655,1.655,0,0,1-.2-.559.259.259,0,0,1-.018-.067c0-.088,0-.165,0-.256a.226.226,0,0,1,.01-.1,3.648,3.648,0,0,1,.339-.9c.14-.3.282-.608.424-.912.009-.02.017-.04.028-.058.041-.069.064-.074.121-.013.085.091.166.185.249.278.237.267.475.533.71.8a1.733,1.733,0,0,1,.427.808,1.779,1.779,0,0,1-.148,1.075,1.964,1.964,0,0,1-.4.607.711.711,0,0,1-.069.069c-.06.046-.089.034-.107-.046,0-.021,0-.043-.008-.078A.954.954,0,0,1,103.509,58.843Z" transform="translate(-49.854 -37.702)" fill="#a4ca38"/>
    <path id="Path_1201" data-name="Path 1201" d="M104.567,46.384c.218,0,.424-.008.646-.015a1.168,1.168,0,0,1,.391-.008,1.242,1.242,0,0,1,.529.122,1.324,1.324,0,0,1,.647.923c.012.052.021.106.029.159,0,.026.008.056-.018.074s-.051,0-.073-.014l-.246-.185a1.967,1.967,0,0,0-.337-.213.05.05,0,0,1-.055.014,1.192,1.192,0,0,0-.292-.179c-.02-.009-.023-.029-.036-.027s-.007.009.017.014a2,2,0,0,1,.3.19c.015.011.02.016.018.03a.739.739,0,0,0,.216.217,4.154,4.154,0,0,1,.346.342c.058.061.052.091-.021.121a1.286,1.286,0,0,1-1.584-.335,1.656,1.656,0,0,1-.15-.268c-.136-.283-.272-.565-.414-.857a.076.076,0,0,1-.009-.066.1.1,0,0,1,.037-.024A.172.172,0,0,1,104.567,46.384Z" transform="translate(-51.899 -30.195)" fill="#bbca2e"/>
    <path id="Path_1202" data-name="Path 1202" d="M98.457,38.537c.3-.021.585.034.876.03.1,0,.212.028.335.029a2.88,2.88,0,0,1-1.188,1.622,1.939,1.939,0,0,1-.235.143c-.1.048-.147.011-.129-.1.028-.176.065-.35.1-.525C98.293,39.341,98.371,38.944,98.457,38.537Z" transform="translate(-46.734 -23.837)" fill="#d8c922"/>
    <path id="Path_1203" data-name="Path 1203" d="M89.759,39.668a2.082,2.082,0,0,0,.384-.052,6.953,6.953,0,0,1,1.239-.054c-.151.511-.315,1.02-.486,1.528-.053.156-.12.164-.247.042A3.32,3.32,0,0,1,89.759,39.668Z" transform="translate(-39.938 -24.671)" fill="#d8ca22"/>
    <path id="Path_1204" data-name="Path 1204" d="M78.988,32c.1,0,.183-.007.284-.015a2.651,2.651,0,0,1,.511-.118c.041-.013.087-.039.129-.024-.2.007-.394.126-.616.065-.135-.011-.259-.009-.383-.019-.16-.013-.182-.059-.1-.192a1.175,1.175,0,0,1,.3-.34.843.843,0,0,1,.815-.124,6.766,6.766,0,0,1,.7.3c.095.045.1.064.025.139-.149.15-.3.3-.453.443a.923.923,0,0,1-1.279.045c-.025-.021-.051-.04-.086-.066a.055.055,0,0,1-.011-.062.417.417,0,0,1,.1-.022A.141.141,0,0,1,78.988,32Z" transform="translate(-30.996 -17.858)" fill="#f8c508"/>
    <path id="Path_1205" data-name="Path 1205" d="M84.881,24.531a.031.031,0,0,0-.03.01c-.1.084-.141.078-.181-.037a1.229,1.229,0,0,1-.081-.352.113.113,0,0,1-.007-.068.8.8,0,0,1,.411-.621c.12-.074.235-.156.354-.231.082-.051.1-.045.123.046a4.562,4.562,0,0,1,.11.573.726.726,0,0,1-.463.777.545.545,0,0,1-.136.052c-.042.009-.056-.02-.048-.071-.01-.112.058-.181.107-.269a1.97,1.97,0,0,0,.2-.476,1.983,1.983,0,0,1-.195.464C84.984,24.4,84.972,24.5,84.881,24.531Z" transform="translate(-35.725 -11.364)" fill="#f7c408"/>
    <path id="Path_1206" data-name="Path 1206" d="M99.446,54.073a.4.4,0,0,0-.027.053c-.015.033-.014.081-.062.083s-.061-.052-.078-.087a1.122,1.122,0,0,1-.091-.352.117.117,0,0,1,0-.068.75.75,0,0,1,.342-.538c.153-.1.3-.205.45-.307.016.011.03.015.032.022a4.91,4.91,0,0,1,.145.795.555.555,0,0,1-.245.454,1.229,1.229,0,0,1-.231.15c-.127.07-.177.039-.181-.1,0-.022,0-.043,0-.079-.032-.059,0-.1,0-.16.019-.058.031-.107.043-.156-.017.044-.021.092-.044.145A.234.234,0,0,1,99.446,54.073Z" transform="translate(-47.605 -35.489)" fill="#b8c72e"/>
    <path id="Path_1207" data-name="Path 1207" d="M107.647,41.687c0,.074-.04.094-.094.1a.508.508,0,0,1-.6-.3,2.163,2.163,0,0,1-.139-.449c-.013-.056,0-.1.069-.1a1.571,1.571,0,0,1,.571.107.564.564,0,0,1,.289.526c0,.034-.015.064-.073.049-.147-.069-.2-.225-.335-.3a.208.208,0,0,1-.047-.033l-.025-.025c-.011-.007-.017-.007-.014-.007a.06.06,0,0,1,.026.02.288.288,0,0,0,.043.037A1.052,1.052,0,0,1,107.647,41.687Z" transform="translate(-53.809 -25.793)" fill="#d3c521"/>
    <path id="Path_1208" data-name="Path 1208" d="M113.135,56.563c.067.02.113.043.081.117a.709.709,0,0,1-.3.367.44.44,0,0,1-.312.054c-.132-.028-.264-.057-.4-.09-.093-.023-.1-.044-.057-.12a1.859,1.859,0,0,1,.318-.409.494.494,0,0,1,.586-.078c.037.019.083.036.062.107a.09.09,0,0,1-.027.037c-.164.051-.316.1-.466.161a4.534,4.534,0,0,1,.447-.147A.361.361,0,0,1,113.135,56.563Z" transform="translate(-58.128 -38.325)" fill="#a1c637"/>
    <path id="Path_1261" data-name="Path 1261" d="M122.525,37.955a2.638,2.638,0,0,1,.379-1.036,1.789,1.789,0,0,1,1.286-.836.256.256,0,0,1,.067-.02c.25,0,.489-.009.743,0a.521.521,0,0,1,.167.007,8.108,8.108,0,0,0,.92.029c.234,0,.232,0,.134.213-.2.438-.4.878-.6,1.316a2.45,2.45,0,0,1-.379.622,1.654,1.654,0,0,1-.953.547,2.447,2.447,0,0,1-1.561-.194.07.07,0,0,1-.008-.062,7.213,7.213,0,0,1,1.711-1.45c.043-.026.121-.052.09-.113s-.1-.012-.151.01a6.4,6.4,0,0,0-.786.456,8.376,8.376,0,0,0-.87.652c-.02.018-.042.034-.064.05-.106.076-.117.069-.134-.089A.222.222,0,0,1,122.525,37.955Z" transform="translate(-66.584 -21.824)" fill="#d8ca22"/>
    <path id="Path_1262" data-name="Path 1262" d="M124.24,28.135c-.02.082-.033.155-.046.229,0,.027-.008.058-.036.066s-.056-.021-.073-.048a.809.809,0,0,1-.127-.356.124.124,0,0,1-.008-.067.729.729,0,0,1,.248-.47c.084-.075.158-.162.24-.241.063-.061.083-.06.119.014a2.361,2.361,0,0,1,.213.592.413.413,0,0,1-.1.377,3.087,3.087,0,0,1-.242.238c-.07.059-.122.037-.132-.054s0-.162-.008-.257a.154.154,0,0,1,0-.152C124.264,28.042,124.272,28.091,124.24,28.135Z" transform="translate(-67.75 -14.621)" fill="#f4c209"/>
    <path id="Path_1263" data-name="Path 1263" d="M123.358,52.046a.915.915,0,0,1-.454-.138.453.453,0,0,1-.219-.454.189.189,0,0,1,.125-.172.37.37,0,0,1,.459.131A.692.692,0,0,1,123.358,52.046Z" transform="translate(-66.722 -34.182)" fill="#b7c52e"/>
    <path id="Path_1274" data-name="Path 1274" d="M75.475,95.395a3.9,3.9,0,0,0,1.03.361c.06.013.156,0,.166.07s-.086.1-.146.127a1.425,1.425,0,0,1-.944.137,1.052,1.052,0,0,1-.627-.407c-.2-.262-.39-.532-.582-.8-.063-.088-.054-.113.057-.141a7.329,7.329,0,0,1,1.093-.237,1.066,1.066,0,0,1,.9.333,1.683,1.683,0,0,1,.37.623c.053.149-.011.177-.134.161a4.659,4.659,0,0,1-.978-.225c-.041-.015-.083-.025-.137-.039a1.231,1.231,0,0,1-.376-.131.209.209,0,0,1-.035-.02.125.125,0,0,0-.026-.015c.019.01-.015.032,0,.013s.015-.009.032,0A1.447,1.447,0,0,1,75.475,95.395Z" transform="translate(-27.389 -69.365)" fill="#cf6e29"/>
    <path id="Path_1275" data-name="Path 1275" d="M88.295,104.5c0-.152-.036-.29-.024-.432a.833.833,0,0,1,.008-.113c.018-.076.064-.1.131-.065a.907.907,0,0,1,.532,1.136c-.061.213-.148.418-.225.625-.034.09-.07.1-.142.038a3.74,3.74,0,0,1-.607-.606.863.863,0,0,1,.11-1.127c0-.006.02,0,.041-.005.065.176.043.371.107.56.115.154.076.347.159.471A1.151,1.151,0,0,1,88.295,104.5Z" transform="translate(-38.349 -76.99)" fill="#d55126"/>
    <path id="Path_1276" data-name="Path 1276" d="M96.294,104.572c-.052-.121-.091-.233-.135-.355-.015-.023-.024-.036-.034-.05s-.011-.027-.025-.034a.091.091,0,0,1,0,.058c.018.121.041.231.064.355a.082.082,0,0,1-.065.056,2.415,2.415,0,0,1-.829-.03c.172-.438.355-.864.54-1.29.042-.1.059-.1.133-.02q.385.427.764.86a1.327,1.327,0,0,1,.2.366c0,.043-.014.067-.041.07A1.159,1.159,0,0,1,96.294,104.572Z" transform="translate(-44.422 -76.446)" fill="#d65127"/>
    <path id="Path_1277" data-name="Path 1277" d="M95.175,110.484c.295-.014.587-.014.894-.015a3.476,3.476,0,0,1,.034,1.29c-.015.108-.04.12-.141.07A1.409,1.409,0,0,1,95.175,110.484Z" transform="translate(-44.341 -82.356)" fill="#e01d24"/>
    <path id="Path_1278" data-name="Path 1278" d="M100.69,110.263c.2-.03.4-.046.614-.07a1.207,1.207,0,0,1-.018.721,1.644,1.644,0,0,1-.385.63c-.014.016-.031.031-.08.017C100.765,111.141,100.729,110.709,100.69,110.263Z" transform="translate(-48.83 -82.131)" fill="#de1c24"/>
    <path id="Path_1328" data-name="Path 1328" d="M99.2,13.059a.134.134,0,0,1,.006.056c0,.011-.017.011-.024.011a.109.109,0,0,1,0-.056A.015.015,0,0,1,99.2,13.059Z" transform="translate(-47.598 -3.114)" fill="#d4d4d4"/>
    <path id="Path_1349" data-name="Path 1349" d="M43.331,30.6a.074.074,0,0,1-.012-.017.029.029,0,0,1,.014.008A.007.007,0,0,1,43.331,30.6Z" transform="translate(-2.16 -17.367)" fill="#c48c2d"/>
    <path id="Path_1351" data-name="Path 1351" d="M44.2,31.3a.007.007,0,0,1-.01,0C44.188,31.284,44.191,31.283,44.2,31.3Z" transform="translate(-2.869 -17.942)" fill="#946811"/>
    <path id="Path_1352" data-name="Path 1352" d="M44.259,31.367l.013.011c-.018.011.014,0-.01-.009C44.26,31.366,44.259,31.367,44.259,31.367Z" transform="translate(-2.925 -18.008)" fill="#946811"/>
    <path id="Path_1363" data-name="Path 1363" d="M44.339,66.8c0-.006,0-.01.006-.009s0,0,.007.008A.013.013,0,0,1,44.339,66.8Z" transform="translate(-2.99 -46.828)" fill="#433c1d"/>
    <path id="Path_1367" data-name="Path 1367" d="M54.666,17.36a.119.119,0,0,1-.011-.016.024.024,0,0,1,.012.009S54.667,17.359,54.666,17.36Z" transform="translate(-11.382 -6.6)" fill="#946811"/>
    <path id="Path_1376" data-name="Path 1376" d="M46.7,72.25s.007-.034.008,0C46.7,72.252,46.7,72.251,46.7,72.25Z" transform="translate(-4.911 -51.253)" fill="#6f6c21"/>
    <path id="Path_1380" data-name="Path 1380" d="M155.683,94.521s0,0,0,0S155.681,94.523,155.683,94.521Z" transform="translate(-93.566 -69.382)" fill="#564318"/>
    <path id="Path_1389" data-name="Path 1389" d="M39.8,46.936c0,.006,0,.01,0,.01s-.005,0-.008-.007A.013.013,0,0,1,39.8,46.936Z" transform="translate(0.712 -30.672)" fill="#6f6c21"/>
    <path id="Path_1398" data-name="Path 1398" d="M132.943,88.172s0,.019,0,0C132.944,88.173,132.943,88.172,132.943,88.172Z" transform="translate(-75.064 -64.217)" fill="#564318"/>
    <path id="Path_1405" data-name="Path 1405" d="M141.034,86.481c-.007,0-.012,0-.011-.006S141.034,86.463,141.034,86.481Z" transform="translate(-81.641 -62.83)" fill="#53491f"/>
    <path id="Path_1407" data-name="Path 1407" d="M61.028,49.7s.006-.012.02-.024C61.052,49.687,61.045,49.694,61.028,49.7Z" transform="translate(-16.567 -32.905)" fill="#2a1415"/>
    <path id="Path_1411" data-name="Path 1411" d="M70.663,60.908a.022.022,0,0,1-.018,0C70.646,60.893,70.653,60.892,70.663,60.908Z" transform="translate(-24.39 -42.029)" fill="#53491f"/>
    <path id="Path_1412" data-name="Path 1412" d="M70.774,61.02c-.011.005-.018,0-.025-.021s0-.008,0-.008A.047.047,0,0,1,70.774,61.02Z" transform="translate(-24.474 -42.106)" fill="#53491f"/>
    <path id="Path_1413" data-name="Path 1413" d="M70.893,61.167c.01,0,.024.013.023.019s-.014.016-.028,0S70.89,61.17,70.893,61.167Z" transform="translate(-24.586 -42.249)" fill="#53491f"/>
    <path id="Path_1416" data-name="Path 1416" d="M62.787,58.881c0-.016,0-.023.008-.017S62.792,58.877,62.787,58.881Z" transform="translate(-17.995 -40.374)" fill="#6f6c21"/>
    <path id="Path_1424" data-name="Path 1424" d="M85.613,34.4c0-.006,0-.01.005-.01s.006,0,.009.007A.015.015,0,0,1,85.613,34.4Z" transform="translate(-36.566 -20.464)" fill="#2a1415"/>
    <path id="Path_1429" data-name="Path 1429" d="M102.184,55.5s.005,0,.005,0S102.185,55.5,102.184,55.5Z" transform="translate(-50.045 -37.632)" fill="#6f6c21"/>
    <path id="Path_1440" data-name="Path 1440" d="M125.243,53.608s-.006,0-.01-.009A.033.033,0,0,1,125.243,53.608Z" transform="translate(-68.796 -36.092)" fill="#c58c2d"/>
    <path id="Path_1441" data-name="Path 1441" d="M125.292,53.673l.011.012a.027.027,0,0,1-.009-.009S125.292,53.673,125.292,53.673Z" transform="translate(-68.844 -36.153)" fill="#c58c2d"/>
    <path id="Path_1442" data-name="Path 1442" d="M78.426,98.183l-.039-.011c.01-.021.021-.009.035.006S78.425,98.183,78.426,98.183Z" transform="translate(-30.687 -72.343)" fill="#512d1a"/>
  </g>
</svg>
